G75*
%MOIN*%
%OFA0B0*%
%FSLAX25Y25*%
%IPPOS*%
%LPD*%
%AMOC8*
5,1,8,0,0,1.08239X$1,22.5*
%
%ADD10C,0.00000*%
%ADD11C,0.00800*%
%ADD12C,0.01600*%
D10*
X0023454Y0031328D02*
X0023454Y0291957D01*
X0023460Y0292433D01*
X0023477Y0292908D01*
X0023506Y0293383D01*
X0023546Y0293857D01*
X0023598Y0294330D01*
X0023661Y0294801D01*
X0023735Y0295271D01*
X0023821Y0295739D01*
X0023918Y0296205D01*
X0024026Y0296668D01*
X0024145Y0297128D01*
X0024276Y0297586D01*
X0024417Y0298040D01*
X0024570Y0298491D01*
X0024733Y0298937D01*
X0024907Y0299380D01*
X0025092Y0299818D01*
X0025287Y0300252D01*
X0025493Y0300681D01*
X0025709Y0301105D01*
X0025935Y0301524D01*
X0026171Y0301937D01*
X0026417Y0302344D01*
X0026673Y0302745D01*
X0026939Y0303139D01*
X0027214Y0303528D01*
X0027498Y0303909D01*
X0027791Y0304283D01*
X0028093Y0304651D01*
X0028405Y0305011D01*
X0028724Y0305363D01*
X0029052Y0305707D01*
X0029389Y0306044D01*
X0029733Y0306372D01*
X0030085Y0306691D01*
X0030445Y0307003D01*
X0030813Y0307305D01*
X0031187Y0307598D01*
X0031568Y0307882D01*
X0031957Y0308157D01*
X0032351Y0308423D01*
X0032752Y0308679D01*
X0033159Y0308925D01*
X0033572Y0309161D01*
X0033991Y0309387D01*
X0034415Y0309603D01*
X0034844Y0309809D01*
X0035278Y0310004D01*
X0035716Y0310189D01*
X0036159Y0310363D01*
X0036605Y0310526D01*
X0037056Y0310679D01*
X0037510Y0310820D01*
X0037968Y0310951D01*
X0038428Y0311070D01*
X0038891Y0311178D01*
X0039357Y0311275D01*
X0039825Y0311361D01*
X0040295Y0311435D01*
X0040766Y0311498D01*
X0041239Y0311550D01*
X0041713Y0311590D01*
X0042188Y0311619D01*
X0042663Y0311636D01*
X0043139Y0311642D01*
X0043139Y0311643D02*
X0397469Y0311643D01*
X0397469Y0311642D02*
X0397945Y0311636D01*
X0398420Y0311619D01*
X0398895Y0311590D01*
X0399369Y0311550D01*
X0399842Y0311498D01*
X0400313Y0311435D01*
X0400783Y0311361D01*
X0401251Y0311275D01*
X0401717Y0311178D01*
X0402180Y0311070D01*
X0402640Y0310951D01*
X0403098Y0310820D01*
X0403552Y0310679D01*
X0404003Y0310526D01*
X0404449Y0310363D01*
X0404892Y0310189D01*
X0405330Y0310004D01*
X0405764Y0309809D01*
X0406193Y0309603D01*
X0406617Y0309387D01*
X0407036Y0309161D01*
X0407449Y0308925D01*
X0407856Y0308679D01*
X0408257Y0308423D01*
X0408651Y0308157D01*
X0409040Y0307882D01*
X0409421Y0307598D01*
X0409795Y0307305D01*
X0410163Y0307003D01*
X0410523Y0306691D01*
X0410875Y0306372D01*
X0411219Y0306044D01*
X0411556Y0305707D01*
X0411884Y0305363D01*
X0412203Y0305011D01*
X0412515Y0304651D01*
X0412817Y0304283D01*
X0413110Y0303909D01*
X0413394Y0303528D01*
X0413669Y0303139D01*
X0413935Y0302745D01*
X0414191Y0302344D01*
X0414437Y0301937D01*
X0414673Y0301524D01*
X0414899Y0301105D01*
X0415115Y0300681D01*
X0415321Y0300252D01*
X0415516Y0299818D01*
X0415701Y0299380D01*
X0415875Y0298937D01*
X0416038Y0298491D01*
X0416191Y0298040D01*
X0416332Y0297586D01*
X0416463Y0297128D01*
X0416582Y0296668D01*
X0416690Y0296205D01*
X0416787Y0295739D01*
X0416873Y0295271D01*
X0416947Y0294801D01*
X0417010Y0294330D01*
X0417062Y0293857D01*
X0417102Y0293383D01*
X0417131Y0292908D01*
X0417148Y0292433D01*
X0417154Y0291957D01*
X0417154Y0031328D01*
X0417154Y0031327D02*
X0417196Y0030851D01*
X0417226Y0030374D01*
X0417245Y0029896D01*
X0417252Y0029418D01*
X0417248Y0028940D01*
X0417232Y0028463D01*
X0417204Y0027985D01*
X0417165Y0027509D01*
X0417115Y0027033D01*
X0417053Y0026559D01*
X0416980Y0026087D01*
X0416895Y0025617D01*
X0416799Y0025148D01*
X0416691Y0024682D01*
X0416573Y0024219D01*
X0416443Y0023759D01*
X0416302Y0023302D01*
X0416150Y0022849D01*
X0415987Y0022399D01*
X0415814Y0021954D01*
X0415630Y0021513D01*
X0415435Y0021076D01*
X0415229Y0020645D01*
X0415014Y0020218D01*
X0414788Y0019797D01*
X0414551Y0019381D01*
X0414305Y0018971D01*
X0414049Y0018567D01*
X0413784Y0018170D01*
X0413509Y0017779D01*
X0413224Y0017395D01*
X0412930Y0017018D01*
X0412628Y0016648D01*
X0412316Y0016285D01*
X0411996Y0015930D01*
X0411667Y0015583D01*
X0411330Y0015244D01*
X0410985Y0014913D01*
X0410632Y0014591D01*
X0410271Y0014277D01*
X0409903Y0013972D01*
X0409528Y0013676D01*
X0409145Y0013389D01*
X0408756Y0013112D01*
X0408360Y0012844D01*
X0407958Y0012585D01*
X0407549Y0012337D01*
X0407135Y0012098D01*
X0406715Y0011870D01*
X0406290Y0011651D01*
X0405859Y0011443D01*
X0405424Y0011246D01*
X0404984Y0011059D01*
X0404540Y0010883D01*
X0404091Y0010717D01*
X0403639Y0010563D01*
X0403183Y0010419D01*
X0402723Y0010287D01*
X0402261Y0010165D01*
X0401796Y0010055D01*
X0401328Y0009956D01*
X0400858Y0009868D01*
X0400386Y0009792D01*
X0399913Y0009727D01*
X0399437Y0009674D01*
X0399438Y0009674D02*
X0045107Y0009674D01*
X0044584Y0009680D01*
X0044061Y0009699D01*
X0043538Y0009731D01*
X0043017Y0009775D01*
X0042497Y0009832D01*
X0041978Y0009901D01*
X0041461Y0009983D01*
X0040947Y0010077D01*
X0040434Y0010184D01*
X0039925Y0010303D01*
X0039418Y0010435D01*
X0038915Y0010578D01*
X0038416Y0010734D01*
X0037920Y0010902D01*
X0037428Y0011081D01*
X0036941Y0011273D01*
X0036459Y0011476D01*
X0035982Y0011691D01*
X0035510Y0011917D01*
X0035044Y0012154D01*
X0034584Y0012403D01*
X0034129Y0012663D01*
X0033681Y0012934D01*
X0033240Y0013215D01*
X0032806Y0013507D01*
X0032379Y0013810D01*
X0031960Y0014122D01*
X0031548Y0014445D01*
X0031144Y0014778D01*
X0030748Y0015120D01*
X0030360Y0015471D01*
X0029981Y0015832D01*
X0029611Y0016202D01*
X0029250Y0016581D01*
X0028899Y0016969D01*
X0028557Y0017365D01*
X0028224Y0017769D01*
X0027901Y0018181D01*
X0027589Y0018600D01*
X0027286Y0019027D01*
X0026994Y0019461D01*
X0026713Y0019902D01*
X0026442Y0020350D01*
X0026182Y0020805D01*
X0025933Y0021265D01*
X0025696Y0021731D01*
X0025470Y0022203D01*
X0025255Y0022680D01*
X0025052Y0023162D01*
X0024860Y0023649D01*
X0024681Y0024141D01*
X0024513Y0024637D01*
X0024357Y0025136D01*
X0024214Y0025639D01*
X0024082Y0026146D01*
X0023963Y0026655D01*
X0023856Y0027168D01*
X0023762Y0027682D01*
X0023680Y0028199D01*
X0023611Y0028718D01*
X0023554Y0029238D01*
X0023510Y0029759D01*
X0023478Y0030282D01*
X0023459Y0030805D01*
X0023453Y0031328D01*
X0094772Y0045265D02*
X0094774Y0045425D01*
X0094780Y0045584D01*
X0094790Y0045743D01*
X0094804Y0045902D01*
X0094822Y0046061D01*
X0094843Y0046219D01*
X0094869Y0046376D01*
X0094899Y0046533D01*
X0094932Y0046689D01*
X0094970Y0046844D01*
X0095011Y0046998D01*
X0095056Y0047151D01*
X0095105Y0047303D01*
X0095158Y0047453D01*
X0095214Y0047602D01*
X0095274Y0047750D01*
X0095338Y0047896D01*
X0095406Y0048041D01*
X0095477Y0048184D01*
X0095551Y0048325D01*
X0095629Y0048464D01*
X0095711Y0048601D01*
X0095796Y0048736D01*
X0095884Y0048869D01*
X0095975Y0049000D01*
X0096070Y0049128D01*
X0096168Y0049254D01*
X0096269Y0049378D01*
X0096373Y0049498D01*
X0096480Y0049617D01*
X0096590Y0049732D01*
X0096703Y0049845D01*
X0096818Y0049955D01*
X0096937Y0050062D01*
X0097057Y0050166D01*
X0097181Y0050267D01*
X0097307Y0050365D01*
X0097435Y0050460D01*
X0097566Y0050551D01*
X0097699Y0050639D01*
X0097834Y0050724D01*
X0097971Y0050806D01*
X0098110Y0050884D01*
X0098251Y0050958D01*
X0098394Y0051029D01*
X0098539Y0051097D01*
X0098685Y0051161D01*
X0098833Y0051221D01*
X0098982Y0051277D01*
X0099132Y0051330D01*
X0099284Y0051379D01*
X0099437Y0051424D01*
X0099591Y0051465D01*
X0099746Y0051503D01*
X0099902Y0051536D01*
X0100059Y0051566D01*
X0100216Y0051592D01*
X0100374Y0051613D01*
X0100533Y0051631D01*
X0100692Y0051645D01*
X0100851Y0051655D01*
X0101010Y0051661D01*
X0101170Y0051663D01*
X0101330Y0051661D01*
X0101489Y0051655D01*
X0101648Y0051645D01*
X0101807Y0051631D01*
X0101966Y0051613D01*
X0102124Y0051592D01*
X0102281Y0051566D01*
X0102438Y0051536D01*
X0102594Y0051503D01*
X0102749Y0051465D01*
X0102903Y0051424D01*
X0103056Y0051379D01*
X0103208Y0051330D01*
X0103358Y0051277D01*
X0103507Y0051221D01*
X0103655Y0051161D01*
X0103801Y0051097D01*
X0103946Y0051029D01*
X0104089Y0050958D01*
X0104230Y0050884D01*
X0104369Y0050806D01*
X0104506Y0050724D01*
X0104641Y0050639D01*
X0104774Y0050551D01*
X0104905Y0050460D01*
X0105033Y0050365D01*
X0105159Y0050267D01*
X0105283Y0050166D01*
X0105403Y0050062D01*
X0105522Y0049955D01*
X0105637Y0049845D01*
X0105750Y0049732D01*
X0105860Y0049617D01*
X0105967Y0049498D01*
X0106071Y0049378D01*
X0106172Y0049254D01*
X0106270Y0049128D01*
X0106365Y0049000D01*
X0106456Y0048869D01*
X0106544Y0048736D01*
X0106629Y0048601D01*
X0106711Y0048464D01*
X0106789Y0048325D01*
X0106863Y0048184D01*
X0106934Y0048041D01*
X0107002Y0047896D01*
X0107066Y0047750D01*
X0107126Y0047602D01*
X0107182Y0047453D01*
X0107235Y0047303D01*
X0107284Y0047151D01*
X0107329Y0046998D01*
X0107370Y0046844D01*
X0107408Y0046689D01*
X0107441Y0046533D01*
X0107471Y0046376D01*
X0107497Y0046219D01*
X0107518Y0046061D01*
X0107536Y0045902D01*
X0107550Y0045743D01*
X0107560Y0045584D01*
X0107566Y0045425D01*
X0107568Y0045265D01*
X0107566Y0045105D01*
X0107560Y0044946D01*
X0107550Y0044787D01*
X0107536Y0044628D01*
X0107518Y0044469D01*
X0107497Y0044311D01*
X0107471Y0044154D01*
X0107441Y0043997D01*
X0107408Y0043841D01*
X0107370Y0043686D01*
X0107329Y0043532D01*
X0107284Y0043379D01*
X0107235Y0043227D01*
X0107182Y0043077D01*
X0107126Y0042928D01*
X0107066Y0042780D01*
X0107002Y0042634D01*
X0106934Y0042489D01*
X0106863Y0042346D01*
X0106789Y0042205D01*
X0106711Y0042066D01*
X0106629Y0041929D01*
X0106544Y0041794D01*
X0106456Y0041661D01*
X0106365Y0041530D01*
X0106270Y0041402D01*
X0106172Y0041276D01*
X0106071Y0041152D01*
X0105967Y0041032D01*
X0105860Y0040913D01*
X0105750Y0040798D01*
X0105637Y0040685D01*
X0105522Y0040575D01*
X0105403Y0040468D01*
X0105283Y0040364D01*
X0105159Y0040263D01*
X0105033Y0040165D01*
X0104905Y0040070D01*
X0104774Y0039979D01*
X0104641Y0039891D01*
X0104506Y0039806D01*
X0104369Y0039724D01*
X0104230Y0039646D01*
X0104089Y0039572D01*
X0103946Y0039501D01*
X0103801Y0039433D01*
X0103655Y0039369D01*
X0103507Y0039309D01*
X0103358Y0039253D01*
X0103208Y0039200D01*
X0103056Y0039151D01*
X0102903Y0039106D01*
X0102749Y0039065D01*
X0102594Y0039027D01*
X0102438Y0038994D01*
X0102281Y0038964D01*
X0102124Y0038938D01*
X0101966Y0038917D01*
X0101807Y0038899D01*
X0101648Y0038885D01*
X0101489Y0038875D01*
X0101330Y0038869D01*
X0101170Y0038867D01*
X0101010Y0038869D01*
X0100851Y0038875D01*
X0100692Y0038885D01*
X0100533Y0038899D01*
X0100374Y0038917D01*
X0100216Y0038938D01*
X0100059Y0038964D01*
X0099902Y0038994D01*
X0099746Y0039027D01*
X0099591Y0039065D01*
X0099437Y0039106D01*
X0099284Y0039151D01*
X0099132Y0039200D01*
X0098982Y0039253D01*
X0098833Y0039309D01*
X0098685Y0039369D01*
X0098539Y0039433D01*
X0098394Y0039501D01*
X0098251Y0039572D01*
X0098110Y0039646D01*
X0097971Y0039724D01*
X0097834Y0039806D01*
X0097699Y0039891D01*
X0097566Y0039979D01*
X0097435Y0040070D01*
X0097307Y0040165D01*
X0097181Y0040263D01*
X0097057Y0040364D01*
X0096937Y0040468D01*
X0096818Y0040575D01*
X0096703Y0040685D01*
X0096590Y0040798D01*
X0096480Y0040913D01*
X0096373Y0041032D01*
X0096269Y0041152D01*
X0096168Y0041276D01*
X0096070Y0041402D01*
X0095975Y0041530D01*
X0095884Y0041661D01*
X0095796Y0041794D01*
X0095711Y0041929D01*
X0095629Y0042066D01*
X0095551Y0042205D01*
X0095477Y0042346D01*
X0095406Y0042489D01*
X0095338Y0042634D01*
X0095274Y0042780D01*
X0095214Y0042928D01*
X0095158Y0043077D01*
X0095105Y0043227D01*
X0095056Y0043379D01*
X0095011Y0043532D01*
X0094970Y0043686D01*
X0094932Y0043841D01*
X0094899Y0043997D01*
X0094869Y0044154D01*
X0094843Y0044311D01*
X0094822Y0044469D01*
X0094804Y0044628D01*
X0094790Y0044787D01*
X0094780Y0044946D01*
X0094774Y0045105D01*
X0094772Y0045265D01*
X0167548Y0027391D02*
X0167550Y0027539D01*
X0167556Y0027687D01*
X0167566Y0027835D01*
X0167580Y0027982D01*
X0167598Y0028129D01*
X0167619Y0028275D01*
X0167645Y0028421D01*
X0167675Y0028566D01*
X0167708Y0028710D01*
X0167746Y0028853D01*
X0167787Y0028995D01*
X0167832Y0029136D01*
X0167880Y0029276D01*
X0167933Y0029415D01*
X0167989Y0029552D01*
X0168049Y0029687D01*
X0168112Y0029821D01*
X0168179Y0029953D01*
X0168250Y0030083D01*
X0168324Y0030211D01*
X0168401Y0030337D01*
X0168482Y0030461D01*
X0168566Y0030583D01*
X0168653Y0030702D01*
X0168744Y0030819D01*
X0168838Y0030934D01*
X0168934Y0031046D01*
X0169034Y0031156D01*
X0169136Y0031262D01*
X0169242Y0031366D01*
X0169350Y0031467D01*
X0169461Y0031565D01*
X0169574Y0031661D01*
X0169690Y0031753D01*
X0169808Y0031842D01*
X0169929Y0031927D01*
X0170052Y0032010D01*
X0170177Y0032089D01*
X0170304Y0032165D01*
X0170433Y0032237D01*
X0170564Y0032306D01*
X0170697Y0032371D01*
X0170832Y0032432D01*
X0170968Y0032490D01*
X0171105Y0032545D01*
X0171244Y0032595D01*
X0171385Y0032642D01*
X0171526Y0032685D01*
X0171669Y0032725D01*
X0171813Y0032760D01*
X0171957Y0032792D01*
X0172103Y0032819D01*
X0172249Y0032843D01*
X0172396Y0032863D01*
X0172543Y0032879D01*
X0172690Y0032891D01*
X0172838Y0032899D01*
X0172986Y0032903D01*
X0173134Y0032903D01*
X0173282Y0032899D01*
X0173430Y0032891D01*
X0173577Y0032879D01*
X0173724Y0032863D01*
X0173871Y0032843D01*
X0174017Y0032819D01*
X0174163Y0032792D01*
X0174307Y0032760D01*
X0174451Y0032725D01*
X0174594Y0032685D01*
X0174735Y0032642D01*
X0174876Y0032595D01*
X0175015Y0032545D01*
X0175152Y0032490D01*
X0175288Y0032432D01*
X0175423Y0032371D01*
X0175556Y0032306D01*
X0175687Y0032237D01*
X0175816Y0032165D01*
X0175943Y0032089D01*
X0176068Y0032010D01*
X0176191Y0031927D01*
X0176312Y0031842D01*
X0176430Y0031753D01*
X0176546Y0031661D01*
X0176659Y0031565D01*
X0176770Y0031467D01*
X0176878Y0031366D01*
X0176984Y0031262D01*
X0177086Y0031156D01*
X0177186Y0031046D01*
X0177282Y0030934D01*
X0177376Y0030819D01*
X0177467Y0030702D01*
X0177554Y0030583D01*
X0177638Y0030461D01*
X0177719Y0030337D01*
X0177796Y0030211D01*
X0177870Y0030083D01*
X0177941Y0029953D01*
X0178008Y0029821D01*
X0178071Y0029687D01*
X0178131Y0029552D01*
X0178187Y0029415D01*
X0178240Y0029276D01*
X0178288Y0029136D01*
X0178333Y0028995D01*
X0178374Y0028853D01*
X0178412Y0028710D01*
X0178445Y0028566D01*
X0178475Y0028421D01*
X0178501Y0028275D01*
X0178522Y0028129D01*
X0178540Y0027982D01*
X0178554Y0027835D01*
X0178564Y0027687D01*
X0178570Y0027539D01*
X0178572Y0027391D01*
X0178570Y0027243D01*
X0178564Y0027095D01*
X0178554Y0026947D01*
X0178540Y0026800D01*
X0178522Y0026653D01*
X0178501Y0026507D01*
X0178475Y0026361D01*
X0178445Y0026216D01*
X0178412Y0026072D01*
X0178374Y0025929D01*
X0178333Y0025787D01*
X0178288Y0025646D01*
X0178240Y0025506D01*
X0178187Y0025367D01*
X0178131Y0025230D01*
X0178071Y0025095D01*
X0178008Y0024961D01*
X0177941Y0024829D01*
X0177870Y0024699D01*
X0177796Y0024571D01*
X0177719Y0024445D01*
X0177638Y0024321D01*
X0177554Y0024199D01*
X0177467Y0024080D01*
X0177376Y0023963D01*
X0177282Y0023848D01*
X0177186Y0023736D01*
X0177086Y0023626D01*
X0176984Y0023520D01*
X0176878Y0023416D01*
X0176770Y0023315D01*
X0176659Y0023217D01*
X0176546Y0023121D01*
X0176430Y0023029D01*
X0176312Y0022940D01*
X0176191Y0022855D01*
X0176068Y0022772D01*
X0175943Y0022693D01*
X0175816Y0022617D01*
X0175687Y0022545D01*
X0175556Y0022476D01*
X0175423Y0022411D01*
X0175288Y0022350D01*
X0175152Y0022292D01*
X0175015Y0022237D01*
X0174876Y0022187D01*
X0174735Y0022140D01*
X0174594Y0022097D01*
X0174451Y0022057D01*
X0174307Y0022022D01*
X0174163Y0021990D01*
X0174017Y0021963D01*
X0173871Y0021939D01*
X0173724Y0021919D01*
X0173577Y0021903D01*
X0173430Y0021891D01*
X0173282Y0021883D01*
X0173134Y0021879D01*
X0172986Y0021879D01*
X0172838Y0021883D01*
X0172690Y0021891D01*
X0172543Y0021903D01*
X0172396Y0021919D01*
X0172249Y0021939D01*
X0172103Y0021963D01*
X0171957Y0021990D01*
X0171813Y0022022D01*
X0171669Y0022057D01*
X0171526Y0022097D01*
X0171385Y0022140D01*
X0171244Y0022187D01*
X0171105Y0022237D01*
X0170968Y0022292D01*
X0170832Y0022350D01*
X0170697Y0022411D01*
X0170564Y0022476D01*
X0170433Y0022545D01*
X0170304Y0022617D01*
X0170177Y0022693D01*
X0170052Y0022772D01*
X0169929Y0022855D01*
X0169808Y0022940D01*
X0169690Y0023029D01*
X0169574Y0023121D01*
X0169461Y0023217D01*
X0169350Y0023315D01*
X0169242Y0023416D01*
X0169136Y0023520D01*
X0169034Y0023626D01*
X0168934Y0023736D01*
X0168838Y0023848D01*
X0168744Y0023963D01*
X0168653Y0024080D01*
X0168566Y0024199D01*
X0168482Y0024321D01*
X0168401Y0024445D01*
X0168324Y0024571D01*
X0168250Y0024699D01*
X0168179Y0024829D01*
X0168112Y0024961D01*
X0168049Y0025095D01*
X0167989Y0025230D01*
X0167933Y0025367D01*
X0167880Y0025506D01*
X0167832Y0025646D01*
X0167787Y0025787D01*
X0167746Y0025929D01*
X0167708Y0026072D01*
X0167675Y0026216D01*
X0167645Y0026361D01*
X0167619Y0026507D01*
X0167598Y0026653D01*
X0167580Y0026800D01*
X0167566Y0026947D01*
X0167556Y0027095D01*
X0167550Y0027243D01*
X0167548Y0027391D01*
X0057942Y0122666D02*
X0057944Y0122781D01*
X0057950Y0122895D01*
X0057960Y0123010D01*
X0057974Y0123124D01*
X0057992Y0123237D01*
X0058013Y0123350D01*
X0058039Y0123462D01*
X0058069Y0123573D01*
X0058102Y0123682D01*
X0058139Y0123791D01*
X0058180Y0123898D01*
X0058225Y0124004D01*
X0058273Y0124108D01*
X0058325Y0124211D01*
X0058380Y0124311D01*
X0058439Y0124410D01*
X0058501Y0124506D01*
X0058567Y0124601D01*
X0058636Y0124692D01*
X0058708Y0124782D01*
X0058782Y0124869D01*
X0058860Y0124953D01*
X0058941Y0125035D01*
X0059025Y0125113D01*
X0059111Y0125189D01*
X0059200Y0125262D01*
X0059291Y0125331D01*
X0059385Y0125398D01*
X0059481Y0125461D01*
X0059579Y0125520D01*
X0059679Y0125577D01*
X0059781Y0125629D01*
X0059885Y0125678D01*
X0059990Y0125724D01*
X0060097Y0125766D01*
X0060205Y0125804D01*
X0060315Y0125838D01*
X0060425Y0125869D01*
X0060537Y0125895D01*
X0060650Y0125918D01*
X0060763Y0125937D01*
X0060877Y0125952D01*
X0060991Y0125963D01*
X0061106Y0125970D01*
X0061220Y0125973D01*
X0061335Y0125972D01*
X0061450Y0125967D01*
X0061564Y0125958D01*
X0061678Y0125945D01*
X0061792Y0125928D01*
X0061905Y0125907D01*
X0062017Y0125883D01*
X0062128Y0125854D01*
X0062238Y0125822D01*
X0062347Y0125785D01*
X0062455Y0125745D01*
X0062561Y0125702D01*
X0062665Y0125654D01*
X0062768Y0125603D01*
X0062869Y0125549D01*
X0062968Y0125491D01*
X0063065Y0125430D01*
X0063160Y0125365D01*
X0063253Y0125297D01*
X0063343Y0125226D01*
X0063430Y0125152D01*
X0063515Y0125074D01*
X0063598Y0124994D01*
X0063677Y0124911D01*
X0063753Y0124826D01*
X0063827Y0124737D01*
X0063897Y0124647D01*
X0063964Y0124554D01*
X0064028Y0124458D01*
X0064089Y0124361D01*
X0064146Y0124261D01*
X0064199Y0124160D01*
X0064250Y0124056D01*
X0064296Y0123951D01*
X0064339Y0123845D01*
X0064378Y0123737D01*
X0064413Y0123628D01*
X0064445Y0123517D01*
X0064472Y0123406D01*
X0064496Y0123294D01*
X0064516Y0123180D01*
X0064532Y0123067D01*
X0064544Y0122953D01*
X0064552Y0122838D01*
X0064556Y0122723D01*
X0064556Y0122609D01*
X0064552Y0122494D01*
X0064544Y0122379D01*
X0064532Y0122265D01*
X0064516Y0122152D01*
X0064496Y0122038D01*
X0064472Y0121926D01*
X0064445Y0121815D01*
X0064413Y0121704D01*
X0064378Y0121595D01*
X0064339Y0121487D01*
X0064296Y0121381D01*
X0064250Y0121276D01*
X0064199Y0121172D01*
X0064146Y0121071D01*
X0064089Y0120971D01*
X0064028Y0120874D01*
X0063964Y0120778D01*
X0063897Y0120685D01*
X0063827Y0120595D01*
X0063753Y0120506D01*
X0063677Y0120421D01*
X0063598Y0120338D01*
X0063515Y0120258D01*
X0063430Y0120180D01*
X0063343Y0120106D01*
X0063253Y0120035D01*
X0063160Y0119967D01*
X0063065Y0119902D01*
X0062968Y0119841D01*
X0062869Y0119783D01*
X0062768Y0119729D01*
X0062665Y0119678D01*
X0062561Y0119630D01*
X0062455Y0119587D01*
X0062347Y0119547D01*
X0062238Y0119510D01*
X0062128Y0119478D01*
X0062017Y0119449D01*
X0061905Y0119425D01*
X0061792Y0119404D01*
X0061678Y0119387D01*
X0061564Y0119374D01*
X0061450Y0119365D01*
X0061335Y0119360D01*
X0061220Y0119359D01*
X0061106Y0119362D01*
X0060991Y0119369D01*
X0060877Y0119380D01*
X0060763Y0119395D01*
X0060650Y0119414D01*
X0060537Y0119437D01*
X0060425Y0119463D01*
X0060315Y0119494D01*
X0060205Y0119528D01*
X0060097Y0119566D01*
X0059990Y0119608D01*
X0059885Y0119654D01*
X0059781Y0119703D01*
X0059679Y0119755D01*
X0059579Y0119812D01*
X0059481Y0119871D01*
X0059385Y0119934D01*
X0059291Y0120001D01*
X0059200Y0120070D01*
X0059111Y0120143D01*
X0059025Y0120219D01*
X0058941Y0120297D01*
X0058860Y0120379D01*
X0058782Y0120463D01*
X0058708Y0120550D01*
X0058636Y0120640D01*
X0058567Y0120731D01*
X0058501Y0120826D01*
X0058439Y0120922D01*
X0058380Y0121021D01*
X0058325Y0121121D01*
X0058273Y0121224D01*
X0058225Y0121328D01*
X0058180Y0121434D01*
X0058139Y0121541D01*
X0058102Y0121650D01*
X0058069Y0121759D01*
X0058039Y0121870D01*
X0058013Y0121982D01*
X0057992Y0122095D01*
X0057974Y0122208D01*
X0057960Y0122322D01*
X0057950Y0122437D01*
X0057944Y0122551D01*
X0057942Y0122666D01*
X0034320Y0122666D02*
X0034322Y0122781D01*
X0034328Y0122895D01*
X0034338Y0123010D01*
X0034352Y0123124D01*
X0034370Y0123237D01*
X0034391Y0123350D01*
X0034417Y0123462D01*
X0034447Y0123573D01*
X0034480Y0123682D01*
X0034517Y0123791D01*
X0034558Y0123898D01*
X0034603Y0124004D01*
X0034651Y0124108D01*
X0034703Y0124211D01*
X0034758Y0124311D01*
X0034817Y0124410D01*
X0034879Y0124506D01*
X0034945Y0124601D01*
X0035014Y0124692D01*
X0035086Y0124782D01*
X0035160Y0124869D01*
X0035238Y0124953D01*
X0035319Y0125035D01*
X0035403Y0125113D01*
X0035489Y0125189D01*
X0035578Y0125262D01*
X0035669Y0125331D01*
X0035763Y0125398D01*
X0035859Y0125461D01*
X0035957Y0125520D01*
X0036057Y0125577D01*
X0036159Y0125629D01*
X0036263Y0125678D01*
X0036368Y0125724D01*
X0036475Y0125766D01*
X0036583Y0125804D01*
X0036693Y0125838D01*
X0036803Y0125869D01*
X0036915Y0125895D01*
X0037028Y0125918D01*
X0037141Y0125937D01*
X0037255Y0125952D01*
X0037369Y0125963D01*
X0037484Y0125970D01*
X0037598Y0125973D01*
X0037713Y0125972D01*
X0037828Y0125967D01*
X0037942Y0125958D01*
X0038056Y0125945D01*
X0038170Y0125928D01*
X0038283Y0125907D01*
X0038395Y0125883D01*
X0038506Y0125854D01*
X0038616Y0125822D01*
X0038725Y0125785D01*
X0038833Y0125745D01*
X0038939Y0125702D01*
X0039043Y0125654D01*
X0039146Y0125603D01*
X0039247Y0125549D01*
X0039346Y0125491D01*
X0039443Y0125430D01*
X0039538Y0125365D01*
X0039631Y0125297D01*
X0039721Y0125226D01*
X0039808Y0125152D01*
X0039893Y0125074D01*
X0039976Y0124994D01*
X0040055Y0124911D01*
X0040131Y0124826D01*
X0040205Y0124737D01*
X0040275Y0124647D01*
X0040342Y0124554D01*
X0040406Y0124458D01*
X0040467Y0124361D01*
X0040524Y0124261D01*
X0040577Y0124160D01*
X0040628Y0124056D01*
X0040674Y0123951D01*
X0040717Y0123845D01*
X0040756Y0123737D01*
X0040791Y0123628D01*
X0040823Y0123517D01*
X0040850Y0123406D01*
X0040874Y0123294D01*
X0040894Y0123180D01*
X0040910Y0123067D01*
X0040922Y0122953D01*
X0040930Y0122838D01*
X0040934Y0122723D01*
X0040934Y0122609D01*
X0040930Y0122494D01*
X0040922Y0122379D01*
X0040910Y0122265D01*
X0040894Y0122152D01*
X0040874Y0122038D01*
X0040850Y0121926D01*
X0040823Y0121815D01*
X0040791Y0121704D01*
X0040756Y0121595D01*
X0040717Y0121487D01*
X0040674Y0121381D01*
X0040628Y0121276D01*
X0040577Y0121172D01*
X0040524Y0121071D01*
X0040467Y0120971D01*
X0040406Y0120874D01*
X0040342Y0120778D01*
X0040275Y0120685D01*
X0040205Y0120595D01*
X0040131Y0120506D01*
X0040055Y0120421D01*
X0039976Y0120338D01*
X0039893Y0120258D01*
X0039808Y0120180D01*
X0039721Y0120106D01*
X0039631Y0120035D01*
X0039538Y0119967D01*
X0039443Y0119902D01*
X0039346Y0119841D01*
X0039247Y0119783D01*
X0039146Y0119729D01*
X0039043Y0119678D01*
X0038939Y0119630D01*
X0038833Y0119587D01*
X0038725Y0119547D01*
X0038616Y0119510D01*
X0038506Y0119478D01*
X0038395Y0119449D01*
X0038283Y0119425D01*
X0038170Y0119404D01*
X0038056Y0119387D01*
X0037942Y0119374D01*
X0037828Y0119365D01*
X0037713Y0119360D01*
X0037598Y0119359D01*
X0037484Y0119362D01*
X0037369Y0119369D01*
X0037255Y0119380D01*
X0037141Y0119395D01*
X0037028Y0119414D01*
X0036915Y0119437D01*
X0036803Y0119463D01*
X0036693Y0119494D01*
X0036583Y0119528D01*
X0036475Y0119566D01*
X0036368Y0119608D01*
X0036263Y0119654D01*
X0036159Y0119703D01*
X0036057Y0119755D01*
X0035957Y0119812D01*
X0035859Y0119871D01*
X0035763Y0119934D01*
X0035669Y0120001D01*
X0035578Y0120070D01*
X0035489Y0120143D01*
X0035403Y0120219D01*
X0035319Y0120297D01*
X0035238Y0120379D01*
X0035160Y0120463D01*
X0035086Y0120550D01*
X0035014Y0120640D01*
X0034945Y0120731D01*
X0034879Y0120826D01*
X0034817Y0120922D01*
X0034758Y0121021D01*
X0034703Y0121121D01*
X0034651Y0121224D01*
X0034603Y0121328D01*
X0034558Y0121434D01*
X0034517Y0121541D01*
X0034480Y0121650D01*
X0034447Y0121759D01*
X0034417Y0121870D01*
X0034391Y0121982D01*
X0034370Y0122095D01*
X0034352Y0122208D01*
X0034338Y0122322D01*
X0034328Y0122437D01*
X0034322Y0122551D01*
X0034320Y0122666D01*
X0034280Y0195501D02*
X0034282Y0195616D01*
X0034288Y0195730D01*
X0034298Y0195845D01*
X0034312Y0195959D01*
X0034330Y0196072D01*
X0034351Y0196185D01*
X0034377Y0196297D01*
X0034407Y0196408D01*
X0034440Y0196517D01*
X0034477Y0196626D01*
X0034518Y0196733D01*
X0034563Y0196839D01*
X0034611Y0196943D01*
X0034663Y0197046D01*
X0034718Y0197146D01*
X0034777Y0197245D01*
X0034839Y0197341D01*
X0034905Y0197436D01*
X0034974Y0197527D01*
X0035046Y0197617D01*
X0035120Y0197704D01*
X0035198Y0197788D01*
X0035279Y0197870D01*
X0035363Y0197948D01*
X0035449Y0198024D01*
X0035538Y0198097D01*
X0035629Y0198166D01*
X0035723Y0198233D01*
X0035819Y0198296D01*
X0035917Y0198355D01*
X0036017Y0198412D01*
X0036119Y0198464D01*
X0036223Y0198513D01*
X0036328Y0198559D01*
X0036435Y0198601D01*
X0036543Y0198639D01*
X0036653Y0198673D01*
X0036763Y0198704D01*
X0036875Y0198730D01*
X0036988Y0198753D01*
X0037101Y0198772D01*
X0037215Y0198787D01*
X0037329Y0198798D01*
X0037444Y0198805D01*
X0037558Y0198808D01*
X0037673Y0198807D01*
X0037788Y0198802D01*
X0037902Y0198793D01*
X0038016Y0198780D01*
X0038130Y0198763D01*
X0038243Y0198742D01*
X0038355Y0198718D01*
X0038466Y0198689D01*
X0038576Y0198657D01*
X0038685Y0198620D01*
X0038793Y0198580D01*
X0038899Y0198537D01*
X0039003Y0198489D01*
X0039106Y0198438D01*
X0039207Y0198384D01*
X0039306Y0198326D01*
X0039403Y0198265D01*
X0039498Y0198200D01*
X0039591Y0198132D01*
X0039681Y0198061D01*
X0039768Y0197987D01*
X0039853Y0197909D01*
X0039936Y0197829D01*
X0040015Y0197746D01*
X0040091Y0197661D01*
X0040165Y0197572D01*
X0040235Y0197482D01*
X0040302Y0197389D01*
X0040366Y0197293D01*
X0040427Y0197196D01*
X0040484Y0197096D01*
X0040537Y0196995D01*
X0040588Y0196891D01*
X0040634Y0196786D01*
X0040677Y0196680D01*
X0040716Y0196572D01*
X0040751Y0196463D01*
X0040783Y0196352D01*
X0040810Y0196241D01*
X0040834Y0196129D01*
X0040854Y0196015D01*
X0040870Y0195902D01*
X0040882Y0195788D01*
X0040890Y0195673D01*
X0040894Y0195558D01*
X0040894Y0195444D01*
X0040890Y0195329D01*
X0040882Y0195214D01*
X0040870Y0195100D01*
X0040854Y0194987D01*
X0040834Y0194873D01*
X0040810Y0194761D01*
X0040783Y0194650D01*
X0040751Y0194539D01*
X0040716Y0194430D01*
X0040677Y0194322D01*
X0040634Y0194216D01*
X0040588Y0194111D01*
X0040537Y0194007D01*
X0040484Y0193906D01*
X0040427Y0193806D01*
X0040366Y0193709D01*
X0040302Y0193613D01*
X0040235Y0193520D01*
X0040165Y0193430D01*
X0040091Y0193341D01*
X0040015Y0193256D01*
X0039936Y0193173D01*
X0039853Y0193093D01*
X0039768Y0193015D01*
X0039681Y0192941D01*
X0039591Y0192870D01*
X0039498Y0192802D01*
X0039403Y0192737D01*
X0039306Y0192676D01*
X0039207Y0192618D01*
X0039106Y0192564D01*
X0039003Y0192513D01*
X0038899Y0192465D01*
X0038793Y0192422D01*
X0038685Y0192382D01*
X0038576Y0192345D01*
X0038466Y0192313D01*
X0038355Y0192284D01*
X0038243Y0192260D01*
X0038130Y0192239D01*
X0038016Y0192222D01*
X0037902Y0192209D01*
X0037788Y0192200D01*
X0037673Y0192195D01*
X0037558Y0192194D01*
X0037444Y0192197D01*
X0037329Y0192204D01*
X0037215Y0192215D01*
X0037101Y0192230D01*
X0036988Y0192249D01*
X0036875Y0192272D01*
X0036763Y0192298D01*
X0036653Y0192329D01*
X0036543Y0192363D01*
X0036435Y0192401D01*
X0036328Y0192443D01*
X0036223Y0192489D01*
X0036119Y0192538D01*
X0036017Y0192590D01*
X0035917Y0192647D01*
X0035819Y0192706D01*
X0035723Y0192769D01*
X0035629Y0192836D01*
X0035538Y0192905D01*
X0035449Y0192978D01*
X0035363Y0193054D01*
X0035279Y0193132D01*
X0035198Y0193214D01*
X0035120Y0193298D01*
X0035046Y0193385D01*
X0034974Y0193475D01*
X0034905Y0193566D01*
X0034839Y0193661D01*
X0034777Y0193757D01*
X0034718Y0193856D01*
X0034663Y0193956D01*
X0034611Y0194059D01*
X0034563Y0194163D01*
X0034518Y0194269D01*
X0034477Y0194376D01*
X0034440Y0194485D01*
X0034407Y0194594D01*
X0034377Y0194705D01*
X0034351Y0194817D01*
X0034330Y0194930D01*
X0034312Y0195043D01*
X0034298Y0195157D01*
X0034288Y0195272D01*
X0034282Y0195386D01*
X0034280Y0195501D01*
X0057902Y0195501D02*
X0057904Y0195616D01*
X0057910Y0195730D01*
X0057920Y0195845D01*
X0057934Y0195959D01*
X0057952Y0196072D01*
X0057973Y0196185D01*
X0057999Y0196297D01*
X0058029Y0196408D01*
X0058062Y0196517D01*
X0058099Y0196626D01*
X0058140Y0196733D01*
X0058185Y0196839D01*
X0058233Y0196943D01*
X0058285Y0197046D01*
X0058340Y0197146D01*
X0058399Y0197245D01*
X0058461Y0197341D01*
X0058527Y0197436D01*
X0058596Y0197527D01*
X0058668Y0197617D01*
X0058742Y0197704D01*
X0058820Y0197788D01*
X0058901Y0197870D01*
X0058985Y0197948D01*
X0059071Y0198024D01*
X0059160Y0198097D01*
X0059251Y0198166D01*
X0059345Y0198233D01*
X0059441Y0198296D01*
X0059539Y0198355D01*
X0059639Y0198412D01*
X0059741Y0198464D01*
X0059845Y0198513D01*
X0059950Y0198559D01*
X0060057Y0198601D01*
X0060165Y0198639D01*
X0060275Y0198673D01*
X0060385Y0198704D01*
X0060497Y0198730D01*
X0060610Y0198753D01*
X0060723Y0198772D01*
X0060837Y0198787D01*
X0060951Y0198798D01*
X0061066Y0198805D01*
X0061180Y0198808D01*
X0061295Y0198807D01*
X0061410Y0198802D01*
X0061524Y0198793D01*
X0061638Y0198780D01*
X0061752Y0198763D01*
X0061865Y0198742D01*
X0061977Y0198718D01*
X0062088Y0198689D01*
X0062198Y0198657D01*
X0062307Y0198620D01*
X0062415Y0198580D01*
X0062521Y0198537D01*
X0062625Y0198489D01*
X0062728Y0198438D01*
X0062829Y0198384D01*
X0062928Y0198326D01*
X0063025Y0198265D01*
X0063120Y0198200D01*
X0063213Y0198132D01*
X0063303Y0198061D01*
X0063390Y0197987D01*
X0063475Y0197909D01*
X0063558Y0197829D01*
X0063637Y0197746D01*
X0063713Y0197661D01*
X0063787Y0197572D01*
X0063857Y0197482D01*
X0063924Y0197389D01*
X0063988Y0197293D01*
X0064049Y0197196D01*
X0064106Y0197096D01*
X0064159Y0196995D01*
X0064210Y0196891D01*
X0064256Y0196786D01*
X0064299Y0196680D01*
X0064338Y0196572D01*
X0064373Y0196463D01*
X0064405Y0196352D01*
X0064432Y0196241D01*
X0064456Y0196129D01*
X0064476Y0196015D01*
X0064492Y0195902D01*
X0064504Y0195788D01*
X0064512Y0195673D01*
X0064516Y0195558D01*
X0064516Y0195444D01*
X0064512Y0195329D01*
X0064504Y0195214D01*
X0064492Y0195100D01*
X0064476Y0194987D01*
X0064456Y0194873D01*
X0064432Y0194761D01*
X0064405Y0194650D01*
X0064373Y0194539D01*
X0064338Y0194430D01*
X0064299Y0194322D01*
X0064256Y0194216D01*
X0064210Y0194111D01*
X0064159Y0194007D01*
X0064106Y0193906D01*
X0064049Y0193806D01*
X0063988Y0193709D01*
X0063924Y0193613D01*
X0063857Y0193520D01*
X0063787Y0193430D01*
X0063713Y0193341D01*
X0063637Y0193256D01*
X0063558Y0193173D01*
X0063475Y0193093D01*
X0063390Y0193015D01*
X0063303Y0192941D01*
X0063213Y0192870D01*
X0063120Y0192802D01*
X0063025Y0192737D01*
X0062928Y0192676D01*
X0062829Y0192618D01*
X0062728Y0192564D01*
X0062625Y0192513D01*
X0062521Y0192465D01*
X0062415Y0192422D01*
X0062307Y0192382D01*
X0062198Y0192345D01*
X0062088Y0192313D01*
X0061977Y0192284D01*
X0061865Y0192260D01*
X0061752Y0192239D01*
X0061638Y0192222D01*
X0061524Y0192209D01*
X0061410Y0192200D01*
X0061295Y0192195D01*
X0061180Y0192194D01*
X0061066Y0192197D01*
X0060951Y0192204D01*
X0060837Y0192215D01*
X0060723Y0192230D01*
X0060610Y0192249D01*
X0060497Y0192272D01*
X0060385Y0192298D01*
X0060275Y0192329D01*
X0060165Y0192363D01*
X0060057Y0192401D01*
X0059950Y0192443D01*
X0059845Y0192489D01*
X0059741Y0192538D01*
X0059639Y0192590D01*
X0059539Y0192647D01*
X0059441Y0192706D01*
X0059345Y0192769D01*
X0059251Y0192836D01*
X0059160Y0192905D01*
X0059071Y0192978D01*
X0058985Y0193054D01*
X0058901Y0193132D01*
X0058820Y0193214D01*
X0058742Y0193298D01*
X0058668Y0193385D01*
X0058596Y0193475D01*
X0058527Y0193566D01*
X0058461Y0193661D01*
X0058399Y0193757D01*
X0058340Y0193856D01*
X0058285Y0193956D01*
X0058233Y0194059D01*
X0058185Y0194163D01*
X0058140Y0194269D01*
X0058099Y0194376D01*
X0058062Y0194485D01*
X0058029Y0194594D01*
X0057999Y0194705D01*
X0057973Y0194817D01*
X0057952Y0194930D01*
X0057934Y0195043D01*
X0057920Y0195157D01*
X0057910Y0195272D01*
X0057904Y0195386D01*
X0057902Y0195501D01*
X0033690Y0242942D02*
X0033692Y0243090D01*
X0033698Y0243238D01*
X0033708Y0243386D01*
X0033722Y0243533D01*
X0033740Y0243680D01*
X0033761Y0243826D01*
X0033787Y0243972D01*
X0033817Y0244117D01*
X0033850Y0244261D01*
X0033888Y0244404D01*
X0033929Y0244546D01*
X0033974Y0244687D01*
X0034022Y0244827D01*
X0034075Y0244966D01*
X0034131Y0245103D01*
X0034191Y0245238D01*
X0034254Y0245372D01*
X0034321Y0245504D01*
X0034392Y0245634D01*
X0034466Y0245762D01*
X0034543Y0245888D01*
X0034624Y0246012D01*
X0034708Y0246134D01*
X0034795Y0246253D01*
X0034886Y0246370D01*
X0034980Y0246485D01*
X0035076Y0246597D01*
X0035176Y0246707D01*
X0035278Y0246813D01*
X0035384Y0246917D01*
X0035492Y0247018D01*
X0035603Y0247116D01*
X0035716Y0247212D01*
X0035832Y0247304D01*
X0035950Y0247393D01*
X0036071Y0247478D01*
X0036194Y0247561D01*
X0036319Y0247640D01*
X0036446Y0247716D01*
X0036575Y0247788D01*
X0036706Y0247857D01*
X0036839Y0247922D01*
X0036974Y0247983D01*
X0037110Y0248041D01*
X0037247Y0248096D01*
X0037386Y0248146D01*
X0037527Y0248193D01*
X0037668Y0248236D01*
X0037811Y0248276D01*
X0037955Y0248311D01*
X0038099Y0248343D01*
X0038245Y0248370D01*
X0038391Y0248394D01*
X0038538Y0248414D01*
X0038685Y0248430D01*
X0038832Y0248442D01*
X0038980Y0248450D01*
X0039128Y0248454D01*
X0039276Y0248454D01*
X0039424Y0248450D01*
X0039572Y0248442D01*
X0039719Y0248430D01*
X0039866Y0248414D01*
X0040013Y0248394D01*
X0040159Y0248370D01*
X0040305Y0248343D01*
X0040449Y0248311D01*
X0040593Y0248276D01*
X0040736Y0248236D01*
X0040877Y0248193D01*
X0041018Y0248146D01*
X0041157Y0248096D01*
X0041294Y0248041D01*
X0041430Y0247983D01*
X0041565Y0247922D01*
X0041698Y0247857D01*
X0041829Y0247788D01*
X0041958Y0247716D01*
X0042085Y0247640D01*
X0042210Y0247561D01*
X0042333Y0247478D01*
X0042454Y0247393D01*
X0042572Y0247304D01*
X0042688Y0247212D01*
X0042801Y0247116D01*
X0042912Y0247018D01*
X0043020Y0246917D01*
X0043126Y0246813D01*
X0043228Y0246707D01*
X0043328Y0246597D01*
X0043424Y0246485D01*
X0043518Y0246370D01*
X0043609Y0246253D01*
X0043696Y0246134D01*
X0043780Y0246012D01*
X0043861Y0245888D01*
X0043938Y0245762D01*
X0044012Y0245634D01*
X0044083Y0245504D01*
X0044150Y0245372D01*
X0044213Y0245238D01*
X0044273Y0245103D01*
X0044329Y0244966D01*
X0044382Y0244827D01*
X0044430Y0244687D01*
X0044475Y0244546D01*
X0044516Y0244404D01*
X0044554Y0244261D01*
X0044587Y0244117D01*
X0044617Y0243972D01*
X0044643Y0243826D01*
X0044664Y0243680D01*
X0044682Y0243533D01*
X0044696Y0243386D01*
X0044706Y0243238D01*
X0044712Y0243090D01*
X0044714Y0242942D01*
X0044712Y0242794D01*
X0044706Y0242646D01*
X0044696Y0242498D01*
X0044682Y0242351D01*
X0044664Y0242204D01*
X0044643Y0242058D01*
X0044617Y0241912D01*
X0044587Y0241767D01*
X0044554Y0241623D01*
X0044516Y0241480D01*
X0044475Y0241338D01*
X0044430Y0241197D01*
X0044382Y0241057D01*
X0044329Y0240918D01*
X0044273Y0240781D01*
X0044213Y0240646D01*
X0044150Y0240512D01*
X0044083Y0240380D01*
X0044012Y0240250D01*
X0043938Y0240122D01*
X0043861Y0239996D01*
X0043780Y0239872D01*
X0043696Y0239750D01*
X0043609Y0239631D01*
X0043518Y0239514D01*
X0043424Y0239399D01*
X0043328Y0239287D01*
X0043228Y0239177D01*
X0043126Y0239071D01*
X0043020Y0238967D01*
X0042912Y0238866D01*
X0042801Y0238768D01*
X0042688Y0238672D01*
X0042572Y0238580D01*
X0042454Y0238491D01*
X0042333Y0238406D01*
X0042210Y0238323D01*
X0042085Y0238244D01*
X0041958Y0238168D01*
X0041829Y0238096D01*
X0041698Y0238027D01*
X0041565Y0237962D01*
X0041430Y0237901D01*
X0041294Y0237843D01*
X0041157Y0237788D01*
X0041018Y0237738D01*
X0040877Y0237691D01*
X0040736Y0237648D01*
X0040593Y0237608D01*
X0040449Y0237573D01*
X0040305Y0237541D01*
X0040159Y0237514D01*
X0040013Y0237490D01*
X0039866Y0237470D01*
X0039719Y0237454D01*
X0039572Y0237442D01*
X0039424Y0237434D01*
X0039276Y0237430D01*
X0039128Y0237430D01*
X0038980Y0237434D01*
X0038832Y0237442D01*
X0038685Y0237454D01*
X0038538Y0237470D01*
X0038391Y0237490D01*
X0038245Y0237514D01*
X0038099Y0237541D01*
X0037955Y0237573D01*
X0037811Y0237608D01*
X0037668Y0237648D01*
X0037527Y0237691D01*
X0037386Y0237738D01*
X0037247Y0237788D01*
X0037110Y0237843D01*
X0036974Y0237901D01*
X0036839Y0237962D01*
X0036706Y0238027D01*
X0036575Y0238096D01*
X0036446Y0238168D01*
X0036319Y0238244D01*
X0036194Y0238323D01*
X0036071Y0238406D01*
X0035950Y0238491D01*
X0035832Y0238580D01*
X0035716Y0238672D01*
X0035603Y0238768D01*
X0035492Y0238866D01*
X0035384Y0238967D01*
X0035278Y0239071D01*
X0035176Y0239177D01*
X0035076Y0239287D01*
X0034980Y0239399D01*
X0034886Y0239514D01*
X0034795Y0239631D01*
X0034708Y0239750D01*
X0034624Y0239872D01*
X0034543Y0239996D01*
X0034466Y0240122D01*
X0034392Y0240250D01*
X0034321Y0240380D01*
X0034254Y0240512D01*
X0034191Y0240646D01*
X0034131Y0240781D01*
X0034075Y0240918D01*
X0034022Y0241057D01*
X0033974Y0241197D01*
X0033929Y0241338D01*
X0033888Y0241480D01*
X0033850Y0241623D01*
X0033817Y0241767D01*
X0033787Y0241912D01*
X0033761Y0242058D01*
X0033740Y0242204D01*
X0033722Y0242351D01*
X0033708Y0242498D01*
X0033698Y0242646D01*
X0033692Y0242794D01*
X0033690Y0242942D01*
X0105895Y0276643D02*
X0105897Y0276783D01*
X0105903Y0276923D01*
X0105913Y0277062D01*
X0105927Y0277201D01*
X0105945Y0277340D01*
X0105966Y0277478D01*
X0105992Y0277616D01*
X0106022Y0277753D01*
X0106055Y0277888D01*
X0106093Y0278023D01*
X0106134Y0278157D01*
X0106179Y0278290D01*
X0106227Y0278421D01*
X0106280Y0278550D01*
X0106336Y0278679D01*
X0106395Y0278805D01*
X0106459Y0278930D01*
X0106525Y0279053D01*
X0106596Y0279174D01*
X0106669Y0279293D01*
X0106746Y0279410D01*
X0106827Y0279524D01*
X0106910Y0279636D01*
X0106997Y0279746D01*
X0107087Y0279854D01*
X0107179Y0279958D01*
X0107275Y0280060D01*
X0107374Y0280160D01*
X0107475Y0280256D01*
X0107579Y0280350D01*
X0107686Y0280440D01*
X0107795Y0280527D01*
X0107907Y0280612D01*
X0108021Y0280693D01*
X0108137Y0280771D01*
X0108255Y0280845D01*
X0108376Y0280916D01*
X0108498Y0280984D01*
X0108623Y0281048D01*
X0108749Y0281109D01*
X0108876Y0281166D01*
X0109006Y0281219D01*
X0109137Y0281269D01*
X0109269Y0281314D01*
X0109402Y0281357D01*
X0109537Y0281395D01*
X0109672Y0281429D01*
X0109809Y0281460D01*
X0109946Y0281487D01*
X0110084Y0281509D01*
X0110223Y0281528D01*
X0110362Y0281543D01*
X0110501Y0281554D01*
X0110641Y0281561D01*
X0110781Y0281564D01*
X0110921Y0281563D01*
X0111061Y0281558D01*
X0111200Y0281549D01*
X0111340Y0281536D01*
X0111479Y0281519D01*
X0111617Y0281498D01*
X0111755Y0281474D01*
X0111892Y0281445D01*
X0112028Y0281413D01*
X0112163Y0281376D01*
X0112297Y0281336D01*
X0112430Y0281292D01*
X0112561Y0281244D01*
X0112691Y0281193D01*
X0112820Y0281138D01*
X0112947Y0281079D01*
X0113072Y0281016D01*
X0113195Y0280951D01*
X0113317Y0280881D01*
X0113436Y0280808D01*
X0113554Y0280732D01*
X0113669Y0280653D01*
X0113782Y0280570D01*
X0113892Y0280484D01*
X0114000Y0280395D01*
X0114105Y0280303D01*
X0114208Y0280208D01*
X0114308Y0280110D01*
X0114405Y0280010D01*
X0114499Y0279906D01*
X0114591Y0279800D01*
X0114679Y0279692D01*
X0114764Y0279581D01*
X0114846Y0279467D01*
X0114925Y0279351D01*
X0115000Y0279234D01*
X0115072Y0279114D01*
X0115140Y0278992D01*
X0115205Y0278868D01*
X0115267Y0278742D01*
X0115325Y0278615D01*
X0115379Y0278486D01*
X0115430Y0278355D01*
X0115476Y0278223D01*
X0115519Y0278090D01*
X0115559Y0277956D01*
X0115594Y0277821D01*
X0115626Y0277684D01*
X0115653Y0277547D01*
X0115677Y0277409D01*
X0115697Y0277271D01*
X0115713Y0277132D01*
X0115725Y0276992D01*
X0115733Y0276853D01*
X0115737Y0276713D01*
X0115737Y0276573D01*
X0115733Y0276433D01*
X0115725Y0276294D01*
X0115713Y0276154D01*
X0115697Y0276015D01*
X0115677Y0275877D01*
X0115653Y0275739D01*
X0115626Y0275602D01*
X0115594Y0275465D01*
X0115559Y0275330D01*
X0115519Y0275196D01*
X0115476Y0275063D01*
X0115430Y0274931D01*
X0115379Y0274800D01*
X0115325Y0274671D01*
X0115267Y0274544D01*
X0115205Y0274418D01*
X0115140Y0274294D01*
X0115072Y0274172D01*
X0115000Y0274052D01*
X0114925Y0273935D01*
X0114846Y0273819D01*
X0114764Y0273705D01*
X0114679Y0273594D01*
X0114591Y0273486D01*
X0114499Y0273380D01*
X0114405Y0273276D01*
X0114308Y0273176D01*
X0114208Y0273078D01*
X0114105Y0272983D01*
X0114000Y0272891D01*
X0113892Y0272802D01*
X0113782Y0272716D01*
X0113669Y0272633D01*
X0113554Y0272554D01*
X0113436Y0272478D01*
X0113317Y0272405D01*
X0113195Y0272335D01*
X0113072Y0272270D01*
X0112947Y0272207D01*
X0112820Y0272148D01*
X0112691Y0272093D01*
X0112561Y0272042D01*
X0112430Y0271994D01*
X0112297Y0271950D01*
X0112163Y0271910D01*
X0112028Y0271873D01*
X0111892Y0271841D01*
X0111755Y0271812D01*
X0111617Y0271788D01*
X0111479Y0271767D01*
X0111340Y0271750D01*
X0111200Y0271737D01*
X0111061Y0271728D01*
X0110921Y0271723D01*
X0110781Y0271722D01*
X0110641Y0271725D01*
X0110501Y0271732D01*
X0110362Y0271743D01*
X0110223Y0271758D01*
X0110084Y0271777D01*
X0109946Y0271799D01*
X0109809Y0271826D01*
X0109672Y0271857D01*
X0109537Y0271891D01*
X0109402Y0271929D01*
X0109269Y0271972D01*
X0109137Y0272017D01*
X0109006Y0272067D01*
X0108876Y0272120D01*
X0108749Y0272177D01*
X0108623Y0272238D01*
X0108498Y0272302D01*
X0108376Y0272370D01*
X0108255Y0272441D01*
X0108137Y0272515D01*
X0108021Y0272593D01*
X0107907Y0272674D01*
X0107795Y0272759D01*
X0107686Y0272846D01*
X0107579Y0272936D01*
X0107475Y0273030D01*
X0107374Y0273126D01*
X0107275Y0273226D01*
X0107179Y0273328D01*
X0107087Y0273432D01*
X0106997Y0273540D01*
X0106910Y0273650D01*
X0106827Y0273762D01*
X0106746Y0273876D01*
X0106669Y0273993D01*
X0106596Y0274112D01*
X0106525Y0274233D01*
X0106459Y0274356D01*
X0106395Y0274481D01*
X0106336Y0274607D01*
X0106280Y0274736D01*
X0106227Y0274865D01*
X0106179Y0274996D01*
X0106134Y0275129D01*
X0106093Y0275263D01*
X0106055Y0275398D01*
X0106022Y0275533D01*
X0105992Y0275670D01*
X0105966Y0275808D01*
X0105945Y0275946D01*
X0105927Y0276085D01*
X0105913Y0276224D01*
X0105903Y0276363D01*
X0105897Y0276503D01*
X0105895Y0276643D01*
X0150383Y0276643D02*
X0150385Y0276783D01*
X0150391Y0276923D01*
X0150401Y0277062D01*
X0150415Y0277201D01*
X0150433Y0277340D01*
X0150454Y0277478D01*
X0150480Y0277616D01*
X0150510Y0277753D01*
X0150543Y0277888D01*
X0150581Y0278023D01*
X0150622Y0278157D01*
X0150667Y0278290D01*
X0150715Y0278421D01*
X0150768Y0278550D01*
X0150824Y0278679D01*
X0150883Y0278805D01*
X0150947Y0278930D01*
X0151013Y0279053D01*
X0151084Y0279174D01*
X0151157Y0279293D01*
X0151234Y0279410D01*
X0151315Y0279524D01*
X0151398Y0279636D01*
X0151485Y0279746D01*
X0151575Y0279854D01*
X0151667Y0279958D01*
X0151763Y0280060D01*
X0151862Y0280160D01*
X0151963Y0280256D01*
X0152067Y0280350D01*
X0152174Y0280440D01*
X0152283Y0280527D01*
X0152395Y0280612D01*
X0152509Y0280693D01*
X0152625Y0280771D01*
X0152743Y0280845D01*
X0152864Y0280916D01*
X0152986Y0280984D01*
X0153111Y0281048D01*
X0153237Y0281109D01*
X0153364Y0281166D01*
X0153494Y0281219D01*
X0153625Y0281269D01*
X0153757Y0281314D01*
X0153890Y0281357D01*
X0154025Y0281395D01*
X0154160Y0281429D01*
X0154297Y0281460D01*
X0154434Y0281487D01*
X0154572Y0281509D01*
X0154711Y0281528D01*
X0154850Y0281543D01*
X0154989Y0281554D01*
X0155129Y0281561D01*
X0155269Y0281564D01*
X0155409Y0281563D01*
X0155549Y0281558D01*
X0155688Y0281549D01*
X0155828Y0281536D01*
X0155967Y0281519D01*
X0156105Y0281498D01*
X0156243Y0281474D01*
X0156380Y0281445D01*
X0156516Y0281413D01*
X0156651Y0281376D01*
X0156785Y0281336D01*
X0156918Y0281292D01*
X0157049Y0281244D01*
X0157179Y0281193D01*
X0157308Y0281138D01*
X0157435Y0281079D01*
X0157560Y0281016D01*
X0157683Y0280951D01*
X0157805Y0280881D01*
X0157924Y0280808D01*
X0158042Y0280732D01*
X0158157Y0280653D01*
X0158270Y0280570D01*
X0158380Y0280484D01*
X0158488Y0280395D01*
X0158593Y0280303D01*
X0158696Y0280208D01*
X0158796Y0280110D01*
X0158893Y0280010D01*
X0158987Y0279906D01*
X0159079Y0279800D01*
X0159167Y0279692D01*
X0159252Y0279581D01*
X0159334Y0279467D01*
X0159413Y0279351D01*
X0159488Y0279234D01*
X0159560Y0279114D01*
X0159628Y0278992D01*
X0159693Y0278868D01*
X0159755Y0278742D01*
X0159813Y0278615D01*
X0159867Y0278486D01*
X0159918Y0278355D01*
X0159964Y0278223D01*
X0160007Y0278090D01*
X0160047Y0277956D01*
X0160082Y0277821D01*
X0160114Y0277684D01*
X0160141Y0277547D01*
X0160165Y0277409D01*
X0160185Y0277271D01*
X0160201Y0277132D01*
X0160213Y0276992D01*
X0160221Y0276853D01*
X0160225Y0276713D01*
X0160225Y0276573D01*
X0160221Y0276433D01*
X0160213Y0276294D01*
X0160201Y0276154D01*
X0160185Y0276015D01*
X0160165Y0275877D01*
X0160141Y0275739D01*
X0160114Y0275602D01*
X0160082Y0275465D01*
X0160047Y0275330D01*
X0160007Y0275196D01*
X0159964Y0275063D01*
X0159918Y0274931D01*
X0159867Y0274800D01*
X0159813Y0274671D01*
X0159755Y0274544D01*
X0159693Y0274418D01*
X0159628Y0274294D01*
X0159560Y0274172D01*
X0159488Y0274052D01*
X0159413Y0273935D01*
X0159334Y0273819D01*
X0159252Y0273705D01*
X0159167Y0273594D01*
X0159079Y0273486D01*
X0158987Y0273380D01*
X0158893Y0273276D01*
X0158796Y0273176D01*
X0158696Y0273078D01*
X0158593Y0272983D01*
X0158488Y0272891D01*
X0158380Y0272802D01*
X0158270Y0272716D01*
X0158157Y0272633D01*
X0158042Y0272554D01*
X0157924Y0272478D01*
X0157805Y0272405D01*
X0157683Y0272335D01*
X0157560Y0272270D01*
X0157435Y0272207D01*
X0157308Y0272148D01*
X0157179Y0272093D01*
X0157049Y0272042D01*
X0156918Y0271994D01*
X0156785Y0271950D01*
X0156651Y0271910D01*
X0156516Y0271873D01*
X0156380Y0271841D01*
X0156243Y0271812D01*
X0156105Y0271788D01*
X0155967Y0271767D01*
X0155828Y0271750D01*
X0155688Y0271737D01*
X0155549Y0271728D01*
X0155409Y0271723D01*
X0155269Y0271722D01*
X0155129Y0271725D01*
X0154989Y0271732D01*
X0154850Y0271743D01*
X0154711Y0271758D01*
X0154572Y0271777D01*
X0154434Y0271799D01*
X0154297Y0271826D01*
X0154160Y0271857D01*
X0154025Y0271891D01*
X0153890Y0271929D01*
X0153757Y0271972D01*
X0153625Y0272017D01*
X0153494Y0272067D01*
X0153364Y0272120D01*
X0153237Y0272177D01*
X0153111Y0272238D01*
X0152986Y0272302D01*
X0152864Y0272370D01*
X0152743Y0272441D01*
X0152625Y0272515D01*
X0152509Y0272593D01*
X0152395Y0272674D01*
X0152283Y0272759D01*
X0152174Y0272846D01*
X0152067Y0272936D01*
X0151963Y0273030D01*
X0151862Y0273126D01*
X0151763Y0273226D01*
X0151667Y0273328D01*
X0151575Y0273432D01*
X0151485Y0273540D01*
X0151398Y0273650D01*
X0151315Y0273762D01*
X0151234Y0273876D01*
X0151157Y0273993D01*
X0151084Y0274112D01*
X0151013Y0274233D01*
X0150947Y0274356D01*
X0150883Y0274481D01*
X0150824Y0274607D01*
X0150768Y0274736D01*
X0150715Y0274865D01*
X0150667Y0274996D01*
X0150622Y0275129D01*
X0150581Y0275263D01*
X0150543Y0275398D01*
X0150510Y0275533D01*
X0150480Y0275670D01*
X0150454Y0275808D01*
X0150433Y0275946D01*
X0150415Y0276085D01*
X0150401Y0276224D01*
X0150391Y0276363D01*
X0150385Y0276503D01*
X0150383Y0276643D01*
X0169005Y0276643D02*
X0169007Y0276783D01*
X0169013Y0276923D01*
X0169023Y0277062D01*
X0169037Y0277201D01*
X0169055Y0277340D01*
X0169076Y0277478D01*
X0169102Y0277616D01*
X0169132Y0277753D01*
X0169165Y0277888D01*
X0169203Y0278023D01*
X0169244Y0278157D01*
X0169289Y0278290D01*
X0169337Y0278421D01*
X0169390Y0278550D01*
X0169446Y0278679D01*
X0169505Y0278805D01*
X0169569Y0278930D01*
X0169635Y0279053D01*
X0169706Y0279174D01*
X0169779Y0279293D01*
X0169856Y0279410D01*
X0169937Y0279524D01*
X0170020Y0279636D01*
X0170107Y0279746D01*
X0170197Y0279854D01*
X0170289Y0279958D01*
X0170385Y0280060D01*
X0170484Y0280160D01*
X0170585Y0280256D01*
X0170689Y0280350D01*
X0170796Y0280440D01*
X0170905Y0280527D01*
X0171017Y0280612D01*
X0171131Y0280693D01*
X0171247Y0280771D01*
X0171365Y0280845D01*
X0171486Y0280916D01*
X0171608Y0280984D01*
X0171733Y0281048D01*
X0171859Y0281109D01*
X0171986Y0281166D01*
X0172116Y0281219D01*
X0172247Y0281269D01*
X0172379Y0281314D01*
X0172512Y0281357D01*
X0172647Y0281395D01*
X0172782Y0281429D01*
X0172919Y0281460D01*
X0173056Y0281487D01*
X0173194Y0281509D01*
X0173333Y0281528D01*
X0173472Y0281543D01*
X0173611Y0281554D01*
X0173751Y0281561D01*
X0173891Y0281564D01*
X0174031Y0281563D01*
X0174171Y0281558D01*
X0174310Y0281549D01*
X0174450Y0281536D01*
X0174589Y0281519D01*
X0174727Y0281498D01*
X0174865Y0281474D01*
X0175002Y0281445D01*
X0175138Y0281413D01*
X0175273Y0281376D01*
X0175407Y0281336D01*
X0175540Y0281292D01*
X0175671Y0281244D01*
X0175801Y0281193D01*
X0175930Y0281138D01*
X0176057Y0281079D01*
X0176182Y0281016D01*
X0176305Y0280951D01*
X0176427Y0280881D01*
X0176546Y0280808D01*
X0176664Y0280732D01*
X0176779Y0280653D01*
X0176892Y0280570D01*
X0177002Y0280484D01*
X0177110Y0280395D01*
X0177215Y0280303D01*
X0177318Y0280208D01*
X0177418Y0280110D01*
X0177515Y0280010D01*
X0177609Y0279906D01*
X0177701Y0279800D01*
X0177789Y0279692D01*
X0177874Y0279581D01*
X0177956Y0279467D01*
X0178035Y0279351D01*
X0178110Y0279234D01*
X0178182Y0279114D01*
X0178250Y0278992D01*
X0178315Y0278868D01*
X0178377Y0278742D01*
X0178435Y0278615D01*
X0178489Y0278486D01*
X0178540Y0278355D01*
X0178586Y0278223D01*
X0178629Y0278090D01*
X0178669Y0277956D01*
X0178704Y0277821D01*
X0178736Y0277684D01*
X0178763Y0277547D01*
X0178787Y0277409D01*
X0178807Y0277271D01*
X0178823Y0277132D01*
X0178835Y0276992D01*
X0178843Y0276853D01*
X0178847Y0276713D01*
X0178847Y0276573D01*
X0178843Y0276433D01*
X0178835Y0276294D01*
X0178823Y0276154D01*
X0178807Y0276015D01*
X0178787Y0275877D01*
X0178763Y0275739D01*
X0178736Y0275602D01*
X0178704Y0275465D01*
X0178669Y0275330D01*
X0178629Y0275196D01*
X0178586Y0275063D01*
X0178540Y0274931D01*
X0178489Y0274800D01*
X0178435Y0274671D01*
X0178377Y0274544D01*
X0178315Y0274418D01*
X0178250Y0274294D01*
X0178182Y0274172D01*
X0178110Y0274052D01*
X0178035Y0273935D01*
X0177956Y0273819D01*
X0177874Y0273705D01*
X0177789Y0273594D01*
X0177701Y0273486D01*
X0177609Y0273380D01*
X0177515Y0273276D01*
X0177418Y0273176D01*
X0177318Y0273078D01*
X0177215Y0272983D01*
X0177110Y0272891D01*
X0177002Y0272802D01*
X0176892Y0272716D01*
X0176779Y0272633D01*
X0176664Y0272554D01*
X0176546Y0272478D01*
X0176427Y0272405D01*
X0176305Y0272335D01*
X0176182Y0272270D01*
X0176057Y0272207D01*
X0175930Y0272148D01*
X0175801Y0272093D01*
X0175671Y0272042D01*
X0175540Y0271994D01*
X0175407Y0271950D01*
X0175273Y0271910D01*
X0175138Y0271873D01*
X0175002Y0271841D01*
X0174865Y0271812D01*
X0174727Y0271788D01*
X0174589Y0271767D01*
X0174450Y0271750D01*
X0174310Y0271737D01*
X0174171Y0271728D01*
X0174031Y0271723D01*
X0173891Y0271722D01*
X0173751Y0271725D01*
X0173611Y0271732D01*
X0173472Y0271743D01*
X0173333Y0271758D01*
X0173194Y0271777D01*
X0173056Y0271799D01*
X0172919Y0271826D01*
X0172782Y0271857D01*
X0172647Y0271891D01*
X0172512Y0271929D01*
X0172379Y0271972D01*
X0172247Y0272017D01*
X0172116Y0272067D01*
X0171986Y0272120D01*
X0171859Y0272177D01*
X0171733Y0272238D01*
X0171608Y0272302D01*
X0171486Y0272370D01*
X0171365Y0272441D01*
X0171247Y0272515D01*
X0171131Y0272593D01*
X0171017Y0272674D01*
X0170905Y0272759D01*
X0170796Y0272846D01*
X0170689Y0272936D01*
X0170585Y0273030D01*
X0170484Y0273126D01*
X0170385Y0273226D01*
X0170289Y0273328D01*
X0170197Y0273432D01*
X0170107Y0273540D01*
X0170020Y0273650D01*
X0169937Y0273762D01*
X0169856Y0273876D01*
X0169779Y0273993D01*
X0169706Y0274112D01*
X0169635Y0274233D01*
X0169569Y0274356D01*
X0169505Y0274481D01*
X0169446Y0274607D01*
X0169390Y0274736D01*
X0169337Y0274865D01*
X0169289Y0274996D01*
X0169244Y0275129D01*
X0169203Y0275263D01*
X0169165Y0275398D01*
X0169132Y0275533D01*
X0169102Y0275670D01*
X0169076Y0275808D01*
X0169055Y0275946D01*
X0169037Y0276085D01*
X0169023Y0276224D01*
X0169013Y0276363D01*
X0169007Y0276503D01*
X0169005Y0276643D01*
X0213493Y0276643D02*
X0213495Y0276783D01*
X0213501Y0276923D01*
X0213511Y0277062D01*
X0213525Y0277201D01*
X0213543Y0277340D01*
X0213564Y0277478D01*
X0213590Y0277616D01*
X0213620Y0277753D01*
X0213653Y0277888D01*
X0213691Y0278023D01*
X0213732Y0278157D01*
X0213777Y0278290D01*
X0213825Y0278421D01*
X0213878Y0278550D01*
X0213934Y0278679D01*
X0213993Y0278805D01*
X0214057Y0278930D01*
X0214123Y0279053D01*
X0214194Y0279174D01*
X0214267Y0279293D01*
X0214344Y0279410D01*
X0214425Y0279524D01*
X0214508Y0279636D01*
X0214595Y0279746D01*
X0214685Y0279854D01*
X0214777Y0279958D01*
X0214873Y0280060D01*
X0214972Y0280160D01*
X0215073Y0280256D01*
X0215177Y0280350D01*
X0215284Y0280440D01*
X0215393Y0280527D01*
X0215505Y0280612D01*
X0215619Y0280693D01*
X0215735Y0280771D01*
X0215853Y0280845D01*
X0215974Y0280916D01*
X0216096Y0280984D01*
X0216221Y0281048D01*
X0216347Y0281109D01*
X0216474Y0281166D01*
X0216604Y0281219D01*
X0216735Y0281269D01*
X0216867Y0281314D01*
X0217000Y0281357D01*
X0217135Y0281395D01*
X0217270Y0281429D01*
X0217407Y0281460D01*
X0217544Y0281487D01*
X0217682Y0281509D01*
X0217821Y0281528D01*
X0217960Y0281543D01*
X0218099Y0281554D01*
X0218239Y0281561D01*
X0218379Y0281564D01*
X0218519Y0281563D01*
X0218659Y0281558D01*
X0218798Y0281549D01*
X0218938Y0281536D01*
X0219077Y0281519D01*
X0219215Y0281498D01*
X0219353Y0281474D01*
X0219490Y0281445D01*
X0219626Y0281413D01*
X0219761Y0281376D01*
X0219895Y0281336D01*
X0220028Y0281292D01*
X0220159Y0281244D01*
X0220289Y0281193D01*
X0220418Y0281138D01*
X0220545Y0281079D01*
X0220670Y0281016D01*
X0220793Y0280951D01*
X0220915Y0280881D01*
X0221034Y0280808D01*
X0221152Y0280732D01*
X0221267Y0280653D01*
X0221380Y0280570D01*
X0221490Y0280484D01*
X0221598Y0280395D01*
X0221703Y0280303D01*
X0221806Y0280208D01*
X0221906Y0280110D01*
X0222003Y0280010D01*
X0222097Y0279906D01*
X0222189Y0279800D01*
X0222277Y0279692D01*
X0222362Y0279581D01*
X0222444Y0279467D01*
X0222523Y0279351D01*
X0222598Y0279234D01*
X0222670Y0279114D01*
X0222738Y0278992D01*
X0222803Y0278868D01*
X0222865Y0278742D01*
X0222923Y0278615D01*
X0222977Y0278486D01*
X0223028Y0278355D01*
X0223074Y0278223D01*
X0223117Y0278090D01*
X0223157Y0277956D01*
X0223192Y0277821D01*
X0223224Y0277684D01*
X0223251Y0277547D01*
X0223275Y0277409D01*
X0223295Y0277271D01*
X0223311Y0277132D01*
X0223323Y0276992D01*
X0223331Y0276853D01*
X0223335Y0276713D01*
X0223335Y0276573D01*
X0223331Y0276433D01*
X0223323Y0276294D01*
X0223311Y0276154D01*
X0223295Y0276015D01*
X0223275Y0275877D01*
X0223251Y0275739D01*
X0223224Y0275602D01*
X0223192Y0275465D01*
X0223157Y0275330D01*
X0223117Y0275196D01*
X0223074Y0275063D01*
X0223028Y0274931D01*
X0222977Y0274800D01*
X0222923Y0274671D01*
X0222865Y0274544D01*
X0222803Y0274418D01*
X0222738Y0274294D01*
X0222670Y0274172D01*
X0222598Y0274052D01*
X0222523Y0273935D01*
X0222444Y0273819D01*
X0222362Y0273705D01*
X0222277Y0273594D01*
X0222189Y0273486D01*
X0222097Y0273380D01*
X0222003Y0273276D01*
X0221906Y0273176D01*
X0221806Y0273078D01*
X0221703Y0272983D01*
X0221598Y0272891D01*
X0221490Y0272802D01*
X0221380Y0272716D01*
X0221267Y0272633D01*
X0221152Y0272554D01*
X0221034Y0272478D01*
X0220915Y0272405D01*
X0220793Y0272335D01*
X0220670Y0272270D01*
X0220545Y0272207D01*
X0220418Y0272148D01*
X0220289Y0272093D01*
X0220159Y0272042D01*
X0220028Y0271994D01*
X0219895Y0271950D01*
X0219761Y0271910D01*
X0219626Y0271873D01*
X0219490Y0271841D01*
X0219353Y0271812D01*
X0219215Y0271788D01*
X0219077Y0271767D01*
X0218938Y0271750D01*
X0218798Y0271737D01*
X0218659Y0271728D01*
X0218519Y0271723D01*
X0218379Y0271722D01*
X0218239Y0271725D01*
X0218099Y0271732D01*
X0217960Y0271743D01*
X0217821Y0271758D01*
X0217682Y0271777D01*
X0217544Y0271799D01*
X0217407Y0271826D01*
X0217270Y0271857D01*
X0217135Y0271891D01*
X0217000Y0271929D01*
X0216867Y0271972D01*
X0216735Y0272017D01*
X0216604Y0272067D01*
X0216474Y0272120D01*
X0216347Y0272177D01*
X0216221Y0272238D01*
X0216096Y0272302D01*
X0215974Y0272370D01*
X0215853Y0272441D01*
X0215735Y0272515D01*
X0215619Y0272593D01*
X0215505Y0272674D01*
X0215393Y0272759D01*
X0215284Y0272846D01*
X0215177Y0272936D01*
X0215073Y0273030D01*
X0214972Y0273126D01*
X0214873Y0273226D01*
X0214777Y0273328D01*
X0214685Y0273432D01*
X0214595Y0273540D01*
X0214508Y0273650D01*
X0214425Y0273762D01*
X0214344Y0273876D01*
X0214267Y0273993D01*
X0214194Y0274112D01*
X0214123Y0274233D01*
X0214057Y0274356D01*
X0213993Y0274481D01*
X0213934Y0274607D01*
X0213878Y0274736D01*
X0213825Y0274865D01*
X0213777Y0274996D01*
X0213732Y0275129D01*
X0213691Y0275263D01*
X0213653Y0275398D01*
X0213620Y0275533D01*
X0213590Y0275670D01*
X0213564Y0275808D01*
X0213543Y0275946D01*
X0213525Y0276085D01*
X0213511Y0276224D01*
X0213501Y0276363D01*
X0213495Y0276503D01*
X0213493Y0276643D01*
X0231249Y0276918D02*
X0231251Y0277058D01*
X0231257Y0277198D01*
X0231267Y0277337D01*
X0231281Y0277476D01*
X0231299Y0277615D01*
X0231320Y0277753D01*
X0231346Y0277891D01*
X0231376Y0278028D01*
X0231409Y0278163D01*
X0231447Y0278298D01*
X0231488Y0278432D01*
X0231533Y0278565D01*
X0231581Y0278696D01*
X0231634Y0278825D01*
X0231690Y0278954D01*
X0231749Y0279080D01*
X0231813Y0279205D01*
X0231879Y0279328D01*
X0231950Y0279449D01*
X0232023Y0279568D01*
X0232100Y0279685D01*
X0232181Y0279799D01*
X0232264Y0279911D01*
X0232351Y0280021D01*
X0232441Y0280129D01*
X0232533Y0280233D01*
X0232629Y0280335D01*
X0232728Y0280435D01*
X0232829Y0280531D01*
X0232933Y0280625D01*
X0233040Y0280715D01*
X0233149Y0280802D01*
X0233261Y0280887D01*
X0233375Y0280968D01*
X0233491Y0281046D01*
X0233609Y0281120D01*
X0233730Y0281191D01*
X0233852Y0281259D01*
X0233977Y0281323D01*
X0234103Y0281384D01*
X0234230Y0281441D01*
X0234360Y0281494D01*
X0234491Y0281544D01*
X0234623Y0281589D01*
X0234756Y0281632D01*
X0234891Y0281670D01*
X0235026Y0281704D01*
X0235163Y0281735D01*
X0235300Y0281762D01*
X0235438Y0281784D01*
X0235577Y0281803D01*
X0235716Y0281818D01*
X0235855Y0281829D01*
X0235995Y0281836D01*
X0236135Y0281839D01*
X0236275Y0281838D01*
X0236415Y0281833D01*
X0236554Y0281824D01*
X0236694Y0281811D01*
X0236833Y0281794D01*
X0236971Y0281773D01*
X0237109Y0281749D01*
X0237246Y0281720D01*
X0237382Y0281688D01*
X0237517Y0281651D01*
X0237651Y0281611D01*
X0237784Y0281567D01*
X0237915Y0281519D01*
X0238045Y0281468D01*
X0238174Y0281413D01*
X0238301Y0281354D01*
X0238426Y0281291D01*
X0238549Y0281226D01*
X0238671Y0281156D01*
X0238790Y0281083D01*
X0238908Y0281007D01*
X0239023Y0280928D01*
X0239136Y0280845D01*
X0239246Y0280759D01*
X0239354Y0280670D01*
X0239459Y0280578D01*
X0239562Y0280483D01*
X0239662Y0280385D01*
X0239759Y0280285D01*
X0239853Y0280181D01*
X0239945Y0280075D01*
X0240033Y0279967D01*
X0240118Y0279856D01*
X0240200Y0279742D01*
X0240279Y0279626D01*
X0240354Y0279509D01*
X0240426Y0279389D01*
X0240494Y0279267D01*
X0240559Y0279143D01*
X0240621Y0279017D01*
X0240679Y0278890D01*
X0240733Y0278761D01*
X0240784Y0278630D01*
X0240830Y0278498D01*
X0240873Y0278365D01*
X0240913Y0278231D01*
X0240948Y0278096D01*
X0240980Y0277959D01*
X0241007Y0277822D01*
X0241031Y0277684D01*
X0241051Y0277546D01*
X0241067Y0277407D01*
X0241079Y0277267D01*
X0241087Y0277128D01*
X0241091Y0276988D01*
X0241091Y0276848D01*
X0241087Y0276708D01*
X0241079Y0276569D01*
X0241067Y0276429D01*
X0241051Y0276290D01*
X0241031Y0276152D01*
X0241007Y0276014D01*
X0240980Y0275877D01*
X0240948Y0275740D01*
X0240913Y0275605D01*
X0240873Y0275471D01*
X0240830Y0275338D01*
X0240784Y0275206D01*
X0240733Y0275075D01*
X0240679Y0274946D01*
X0240621Y0274819D01*
X0240559Y0274693D01*
X0240494Y0274569D01*
X0240426Y0274447D01*
X0240354Y0274327D01*
X0240279Y0274210D01*
X0240200Y0274094D01*
X0240118Y0273980D01*
X0240033Y0273869D01*
X0239945Y0273761D01*
X0239853Y0273655D01*
X0239759Y0273551D01*
X0239662Y0273451D01*
X0239562Y0273353D01*
X0239459Y0273258D01*
X0239354Y0273166D01*
X0239246Y0273077D01*
X0239136Y0272991D01*
X0239023Y0272908D01*
X0238908Y0272829D01*
X0238790Y0272753D01*
X0238671Y0272680D01*
X0238549Y0272610D01*
X0238426Y0272545D01*
X0238301Y0272482D01*
X0238174Y0272423D01*
X0238045Y0272368D01*
X0237915Y0272317D01*
X0237784Y0272269D01*
X0237651Y0272225D01*
X0237517Y0272185D01*
X0237382Y0272148D01*
X0237246Y0272116D01*
X0237109Y0272087D01*
X0236971Y0272063D01*
X0236833Y0272042D01*
X0236694Y0272025D01*
X0236554Y0272012D01*
X0236415Y0272003D01*
X0236275Y0271998D01*
X0236135Y0271997D01*
X0235995Y0272000D01*
X0235855Y0272007D01*
X0235716Y0272018D01*
X0235577Y0272033D01*
X0235438Y0272052D01*
X0235300Y0272074D01*
X0235163Y0272101D01*
X0235026Y0272132D01*
X0234891Y0272166D01*
X0234756Y0272204D01*
X0234623Y0272247D01*
X0234491Y0272292D01*
X0234360Y0272342D01*
X0234230Y0272395D01*
X0234103Y0272452D01*
X0233977Y0272513D01*
X0233852Y0272577D01*
X0233730Y0272645D01*
X0233609Y0272716D01*
X0233491Y0272790D01*
X0233375Y0272868D01*
X0233261Y0272949D01*
X0233149Y0273034D01*
X0233040Y0273121D01*
X0232933Y0273211D01*
X0232829Y0273305D01*
X0232728Y0273401D01*
X0232629Y0273501D01*
X0232533Y0273603D01*
X0232441Y0273707D01*
X0232351Y0273815D01*
X0232264Y0273925D01*
X0232181Y0274037D01*
X0232100Y0274151D01*
X0232023Y0274268D01*
X0231950Y0274387D01*
X0231879Y0274508D01*
X0231813Y0274631D01*
X0231749Y0274756D01*
X0231690Y0274882D01*
X0231634Y0275011D01*
X0231581Y0275140D01*
X0231533Y0275271D01*
X0231488Y0275404D01*
X0231447Y0275538D01*
X0231409Y0275673D01*
X0231376Y0275808D01*
X0231346Y0275945D01*
X0231320Y0276083D01*
X0231299Y0276221D01*
X0231281Y0276360D01*
X0231267Y0276499D01*
X0231257Y0276638D01*
X0231251Y0276778D01*
X0231249Y0276918D01*
X0221682Y0295894D02*
X0221684Y0296042D01*
X0221690Y0296190D01*
X0221700Y0296338D01*
X0221714Y0296485D01*
X0221732Y0296632D01*
X0221753Y0296778D01*
X0221779Y0296924D01*
X0221809Y0297069D01*
X0221842Y0297213D01*
X0221880Y0297356D01*
X0221921Y0297498D01*
X0221966Y0297639D01*
X0222014Y0297779D01*
X0222067Y0297918D01*
X0222123Y0298055D01*
X0222183Y0298190D01*
X0222246Y0298324D01*
X0222313Y0298456D01*
X0222384Y0298586D01*
X0222458Y0298714D01*
X0222535Y0298840D01*
X0222616Y0298964D01*
X0222700Y0299086D01*
X0222787Y0299205D01*
X0222878Y0299322D01*
X0222972Y0299437D01*
X0223068Y0299549D01*
X0223168Y0299659D01*
X0223270Y0299765D01*
X0223376Y0299869D01*
X0223484Y0299970D01*
X0223595Y0300068D01*
X0223708Y0300164D01*
X0223824Y0300256D01*
X0223942Y0300345D01*
X0224063Y0300430D01*
X0224186Y0300513D01*
X0224311Y0300592D01*
X0224438Y0300668D01*
X0224567Y0300740D01*
X0224698Y0300809D01*
X0224831Y0300874D01*
X0224966Y0300935D01*
X0225102Y0300993D01*
X0225239Y0301048D01*
X0225378Y0301098D01*
X0225519Y0301145D01*
X0225660Y0301188D01*
X0225803Y0301228D01*
X0225947Y0301263D01*
X0226091Y0301295D01*
X0226237Y0301322D01*
X0226383Y0301346D01*
X0226530Y0301366D01*
X0226677Y0301382D01*
X0226824Y0301394D01*
X0226972Y0301402D01*
X0227120Y0301406D01*
X0227268Y0301406D01*
X0227416Y0301402D01*
X0227564Y0301394D01*
X0227711Y0301382D01*
X0227858Y0301366D01*
X0228005Y0301346D01*
X0228151Y0301322D01*
X0228297Y0301295D01*
X0228441Y0301263D01*
X0228585Y0301228D01*
X0228728Y0301188D01*
X0228869Y0301145D01*
X0229010Y0301098D01*
X0229149Y0301048D01*
X0229286Y0300993D01*
X0229422Y0300935D01*
X0229557Y0300874D01*
X0229690Y0300809D01*
X0229821Y0300740D01*
X0229950Y0300668D01*
X0230077Y0300592D01*
X0230202Y0300513D01*
X0230325Y0300430D01*
X0230446Y0300345D01*
X0230564Y0300256D01*
X0230680Y0300164D01*
X0230793Y0300068D01*
X0230904Y0299970D01*
X0231012Y0299869D01*
X0231118Y0299765D01*
X0231220Y0299659D01*
X0231320Y0299549D01*
X0231416Y0299437D01*
X0231510Y0299322D01*
X0231601Y0299205D01*
X0231688Y0299086D01*
X0231772Y0298964D01*
X0231853Y0298840D01*
X0231930Y0298714D01*
X0232004Y0298586D01*
X0232075Y0298456D01*
X0232142Y0298324D01*
X0232205Y0298190D01*
X0232265Y0298055D01*
X0232321Y0297918D01*
X0232374Y0297779D01*
X0232422Y0297639D01*
X0232467Y0297498D01*
X0232508Y0297356D01*
X0232546Y0297213D01*
X0232579Y0297069D01*
X0232609Y0296924D01*
X0232635Y0296778D01*
X0232656Y0296632D01*
X0232674Y0296485D01*
X0232688Y0296338D01*
X0232698Y0296190D01*
X0232704Y0296042D01*
X0232706Y0295894D01*
X0232704Y0295746D01*
X0232698Y0295598D01*
X0232688Y0295450D01*
X0232674Y0295303D01*
X0232656Y0295156D01*
X0232635Y0295010D01*
X0232609Y0294864D01*
X0232579Y0294719D01*
X0232546Y0294575D01*
X0232508Y0294432D01*
X0232467Y0294290D01*
X0232422Y0294149D01*
X0232374Y0294009D01*
X0232321Y0293870D01*
X0232265Y0293733D01*
X0232205Y0293598D01*
X0232142Y0293464D01*
X0232075Y0293332D01*
X0232004Y0293202D01*
X0231930Y0293074D01*
X0231853Y0292948D01*
X0231772Y0292824D01*
X0231688Y0292702D01*
X0231601Y0292583D01*
X0231510Y0292466D01*
X0231416Y0292351D01*
X0231320Y0292239D01*
X0231220Y0292129D01*
X0231118Y0292023D01*
X0231012Y0291919D01*
X0230904Y0291818D01*
X0230793Y0291720D01*
X0230680Y0291624D01*
X0230564Y0291532D01*
X0230446Y0291443D01*
X0230325Y0291358D01*
X0230202Y0291275D01*
X0230077Y0291196D01*
X0229950Y0291120D01*
X0229821Y0291048D01*
X0229690Y0290979D01*
X0229557Y0290914D01*
X0229422Y0290853D01*
X0229286Y0290795D01*
X0229149Y0290740D01*
X0229010Y0290690D01*
X0228869Y0290643D01*
X0228728Y0290600D01*
X0228585Y0290560D01*
X0228441Y0290525D01*
X0228297Y0290493D01*
X0228151Y0290466D01*
X0228005Y0290442D01*
X0227858Y0290422D01*
X0227711Y0290406D01*
X0227564Y0290394D01*
X0227416Y0290386D01*
X0227268Y0290382D01*
X0227120Y0290382D01*
X0226972Y0290386D01*
X0226824Y0290394D01*
X0226677Y0290406D01*
X0226530Y0290422D01*
X0226383Y0290442D01*
X0226237Y0290466D01*
X0226091Y0290493D01*
X0225947Y0290525D01*
X0225803Y0290560D01*
X0225660Y0290600D01*
X0225519Y0290643D01*
X0225378Y0290690D01*
X0225239Y0290740D01*
X0225102Y0290795D01*
X0224966Y0290853D01*
X0224831Y0290914D01*
X0224698Y0290979D01*
X0224567Y0291048D01*
X0224438Y0291120D01*
X0224311Y0291196D01*
X0224186Y0291275D01*
X0224063Y0291358D01*
X0223942Y0291443D01*
X0223824Y0291532D01*
X0223708Y0291624D01*
X0223595Y0291720D01*
X0223484Y0291818D01*
X0223376Y0291919D01*
X0223270Y0292023D01*
X0223168Y0292129D01*
X0223068Y0292239D01*
X0222972Y0292351D01*
X0222878Y0292466D01*
X0222787Y0292583D01*
X0222700Y0292702D01*
X0222616Y0292824D01*
X0222535Y0292948D01*
X0222458Y0293074D01*
X0222384Y0293202D01*
X0222313Y0293332D01*
X0222246Y0293464D01*
X0222183Y0293598D01*
X0222123Y0293733D01*
X0222067Y0293870D01*
X0222014Y0294009D01*
X0221966Y0294149D01*
X0221921Y0294290D01*
X0221880Y0294432D01*
X0221842Y0294575D01*
X0221809Y0294719D01*
X0221779Y0294864D01*
X0221753Y0295010D01*
X0221732Y0295156D01*
X0221714Y0295303D01*
X0221700Y0295450D01*
X0221690Y0295598D01*
X0221684Y0295746D01*
X0221682Y0295894D01*
X0275737Y0276918D02*
X0275739Y0277058D01*
X0275745Y0277198D01*
X0275755Y0277337D01*
X0275769Y0277476D01*
X0275787Y0277615D01*
X0275808Y0277753D01*
X0275834Y0277891D01*
X0275864Y0278028D01*
X0275897Y0278163D01*
X0275935Y0278298D01*
X0275976Y0278432D01*
X0276021Y0278565D01*
X0276069Y0278696D01*
X0276122Y0278825D01*
X0276178Y0278954D01*
X0276237Y0279080D01*
X0276301Y0279205D01*
X0276367Y0279328D01*
X0276438Y0279449D01*
X0276511Y0279568D01*
X0276588Y0279685D01*
X0276669Y0279799D01*
X0276752Y0279911D01*
X0276839Y0280021D01*
X0276929Y0280129D01*
X0277021Y0280233D01*
X0277117Y0280335D01*
X0277216Y0280435D01*
X0277317Y0280531D01*
X0277421Y0280625D01*
X0277528Y0280715D01*
X0277637Y0280802D01*
X0277749Y0280887D01*
X0277863Y0280968D01*
X0277979Y0281046D01*
X0278097Y0281120D01*
X0278218Y0281191D01*
X0278340Y0281259D01*
X0278465Y0281323D01*
X0278591Y0281384D01*
X0278718Y0281441D01*
X0278848Y0281494D01*
X0278979Y0281544D01*
X0279111Y0281589D01*
X0279244Y0281632D01*
X0279379Y0281670D01*
X0279514Y0281704D01*
X0279651Y0281735D01*
X0279788Y0281762D01*
X0279926Y0281784D01*
X0280065Y0281803D01*
X0280204Y0281818D01*
X0280343Y0281829D01*
X0280483Y0281836D01*
X0280623Y0281839D01*
X0280763Y0281838D01*
X0280903Y0281833D01*
X0281042Y0281824D01*
X0281182Y0281811D01*
X0281321Y0281794D01*
X0281459Y0281773D01*
X0281597Y0281749D01*
X0281734Y0281720D01*
X0281870Y0281688D01*
X0282005Y0281651D01*
X0282139Y0281611D01*
X0282272Y0281567D01*
X0282403Y0281519D01*
X0282533Y0281468D01*
X0282662Y0281413D01*
X0282789Y0281354D01*
X0282914Y0281291D01*
X0283037Y0281226D01*
X0283159Y0281156D01*
X0283278Y0281083D01*
X0283396Y0281007D01*
X0283511Y0280928D01*
X0283624Y0280845D01*
X0283734Y0280759D01*
X0283842Y0280670D01*
X0283947Y0280578D01*
X0284050Y0280483D01*
X0284150Y0280385D01*
X0284247Y0280285D01*
X0284341Y0280181D01*
X0284433Y0280075D01*
X0284521Y0279967D01*
X0284606Y0279856D01*
X0284688Y0279742D01*
X0284767Y0279626D01*
X0284842Y0279509D01*
X0284914Y0279389D01*
X0284982Y0279267D01*
X0285047Y0279143D01*
X0285109Y0279017D01*
X0285167Y0278890D01*
X0285221Y0278761D01*
X0285272Y0278630D01*
X0285318Y0278498D01*
X0285361Y0278365D01*
X0285401Y0278231D01*
X0285436Y0278096D01*
X0285468Y0277959D01*
X0285495Y0277822D01*
X0285519Y0277684D01*
X0285539Y0277546D01*
X0285555Y0277407D01*
X0285567Y0277267D01*
X0285575Y0277128D01*
X0285579Y0276988D01*
X0285579Y0276848D01*
X0285575Y0276708D01*
X0285567Y0276569D01*
X0285555Y0276429D01*
X0285539Y0276290D01*
X0285519Y0276152D01*
X0285495Y0276014D01*
X0285468Y0275877D01*
X0285436Y0275740D01*
X0285401Y0275605D01*
X0285361Y0275471D01*
X0285318Y0275338D01*
X0285272Y0275206D01*
X0285221Y0275075D01*
X0285167Y0274946D01*
X0285109Y0274819D01*
X0285047Y0274693D01*
X0284982Y0274569D01*
X0284914Y0274447D01*
X0284842Y0274327D01*
X0284767Y0274210D01*
X0284688Y0274094D01*
X0284606Y0273980D01*
X0284521Y0273869D01*
X0284433Y0273761D01*
X0284341Y0273655D01*
X0284247Y0273551D01*
X0284150Y0273451D01*
X0284050Y0273353D01*
X0283947Y0273258D01*
X0283842Y0273166D01*
X0283734Y0273077D01*
X0283624Y0272991D01*
X0283511Y0272908D01*
X0283396Y0272829D01*
X0283278Y0272753D01*
X0283159Y0272680D01*
X0283037Y0272610D01*
X0282914Y0272545D01*
X0282789Y0272482D01*
X0282662Y0272423D01*
X0282533Y0272368D01*
X0282403Y0272317D01*
X0282272Y0272269D01*
X0282139Y0272225D01*
X0282005Y0272185D01*
X0281870Y0272148D01*
X0281734Y0272116D01*
X0281597Y0272087D01*
X0281459Y0272063D01*
X0281321Y0272042D01*
X0281182Y0272025D01*
X0281042Y0272012D01*
X0280903Y0272003D01*
X0280763Y0271998D01*
X0280623Y0271997D01*
X0280483Y0272000D01*
X0280343Y0272007D01*
X0280204Y0272018D01*
X0280065Y0272033D01*
X0279926Y0272052D01*
X0279788Y0272074D01*
X0279651Y0272101D01*
X0279514Y0272132D01*
X0279379Y0272166D01*
X0279244Y0272204D01*
X0279111Y0272247D01*
X0278979Y0272292D01*
X0278848Y0272342D01*
X0278718Y0272395D01*
X0278591Y0272452D01*
X0278465Y0272513D01*
X0278340Y0272577D01*
X0278218Y0272645D01*
X0278097Y0272716D01*
X0277979Y0272790D01*
X0277863Y0272868D01*
X0277749Y0272949D01*
X0277637Y0273034D01*
X0277528Y0273121D01*
X0277421Y0273211D01*
X0277317Y0273305D01*
X0277216Y0273401D01*
X0277117Y0273501D01*
X0277021Y0273603D01*
X0276929Y0273707D01*
X0276839Y0273815D01*
X0276752Y0273925D01*
X0276669Y0274037D01*
X0276588Y0274151D01*
X0276511Y0274268D01*
X0276438Y0274387D01*
X0276367Y0274508D01*
X0276301Y0274631D01*
X0276237Y0274756D01*
X0276178Y0274882D01*
X0276122Y0275011D01*
X0276069Y0275140D01*
X0276021Y0275271D01*
X0275976Y0275404D01*
X0275935Y0275538D01*
X0275897Y0275673D01*
X0275864Y0275808D01*
X0275834Y0275945D01*
X0275808Y0276083D01*
X0275787Y0276221D01*
X0275769Y0276360D01*
X0275755Y0276499D01*
X0275745Y0276638D01*
X0275739Y0276778D01*
X0275737Y0276918D01*
X0294359Y0276918D02*
X0294361Y0277058D01*
X0294367Y0277198D01*
X0294377Y0277337D01*
X0294391Y0277476D01*
X0294409Y0277615D01*
X0294430Y0277753D01*
X0294456Y0277891D01*
X0294486Y0278028D01*
X0294519Y0278163D01*
X0294557Y0278298D01*
X0294598Y0278432D01*
X0294643Y0278565D01*
X0294691Y0278696D01*
X0294744Y0278825D01*
X0294800Y0278954D01*
X0294859Y0279080D01*
X0294923Y0279205D01*
X0294989Y0279328D01*
X0295060Y0279449D01*
X0295133Y0279568D01*
X0295210Y0279685D01*
X0295291Y0279799D01*
X0295374Y0279911D01*
X0295461Y0280021D01*
X0295551Y0280129D01*
X0295643Y0280233D01*
X0295739Y0280335D01*
X0295838Y0280435D01*
X0295939Y0280531D01*
X0296043Y0280625D01*
X0296150Y0280715D01*
X0296259Y0280802D01*
X0296371Y0280887D01*
X0296485Y0280968D01*
X0296601Y0281046D01*
X0296719Y0281120D01*
X0296840Y0281191D01*
X0296962Y0281259D01*
X0297087Y0281323D01*
X0297213Y0281384D01*
X0297340Y0281441D01*
X0297470Y0281494D01*
X0297601Y0281544D01*
X0297733Y0281589D01*
X0297866Y0281632D01*
X0298001Y0281670D01*
X0298136Y0281704D01*
X0298273Y0281735D01*
X0298410Y0281762D01*
X0298548Y0281784D01*
X0298687Y0281803D01*
X0298826Y0281818D01*
X0298965Y0281829D01*
X0299105Y0281836D01*
X0299245Y0281839D01*
X0299385Y0281838D01*
X0299525Y0281833D01*
X0299664Y0281824D01*
X0299804Y0281811D01*
X0299943Y0281794D01*
X0300081Y0281773D01*
X0300219Y0281749D01*
X0300356Y0281720D01*
X0300492Y0281688D01*
X0300627Y0281651D01*
X0300761Y0281611D01*
X0300894Y0281567D01*
X0301025Y0281519D01*
X0301155Y0281468D01*
X0301284Y0281413D01*
X0301411Y0281354D01*
X0301536Y0281291D01*
X0301659Y0281226D01*
X0301781Y0281156D01*
X0301900Y0281083D01*
X0302018Y0281007D01*
X0302133Y0280928D01*
X0302246Y0280845D01*
X0302356Y0280759D01*
X0302464Y0280670D01*
X0302569Y0280578D01*
X0302672Y0280483D01*
X0302772Y0280385D01*
X0302869Y0280285D01*
X0302963Y0280181D01*
X0303055Y0280075D01*
X0303143Y0279967D01*
X0303228Y0279856D01*
X0303310Y0279742D01*
X0303389Y0279626D01*
X0303464Y0279509D01*
X0303536Y0279389D01*
X0303604Y0279267D01*
X0303669Y0279143D01*
X0303731Y0279017D01*
X0303789Y0278890D01*
X0303843Y0278761D01*
X0303894Y0278630D01*
X0303940Y0278498D01*
X0303983Y0278365D01*
X0304023Y0278231D01*
X0304058Y0278096D01*
X0304090Y0277959D01*
X0304117Y0277822D01*
X0304141Y0277684D01*
X0304161Y0277546D01*
X0304177Y0277407D01*
X0304189Y0277267D01*
X0304197Y0277128D01*
X0304201Y0276988D01*
X0304201Y0276848D01*
X0304197Y0276708D01*
X0304189Y0276569D01*
X0304177Y0276429D01*
X0304161Y0276290D01*
X0304141Y0276152D01*
X0304117Y0276014D01*
X0304090Y0275877D01*
X0304058Y0275740D01*
X0304023Y0275605D01*
X0303983Y0275471D01*
X0303940Y0275338D01*
X0303894Y0275206D01*
X0303843Y0275075D01*
X0303789Y0274946D01*
X0303731Y0274819D01*
X0303669Y0274693D01*
X0303604Y0274569D01*
X0303536Y0274447D01*
X0303464Y0274327D01*
X0303389Y0274210D01*
X0303310Y0274094D01*
X0303228Y0273980D01*
X0303143Y0273869D01*
X0303055Y0273761D01*
X0302963Y0273655D01*
X0302869Y0273551D01*
X0302772Y0273451D01*
X0302672Y0273353D01*
X0302569Y0273258D01*
X0302464Y0273166D01*
X0302356Y0273077D01*
X0302246Y0272991D01*
X0302133Y0272908D01*
X0302018Y0272829D01*
X0301900Y0272753D01*
X0301781Y0272680D01*
X0301659Y0272610D01*
X0301536Y0272545D01*
X0301411Y0272482D01*
X0301284Y0272423D01*
X0301155Y0272368D01*
X0301025Y0272317D01*
X0300894Y0272269D01*
X0300761Y0272225D01*
X0300627Y0272185D01*
X0300492Y0272148D01*
X0300356Y0272116D01*
X0300219Y0272087D01*
X0300081Y0272063D01*
X0299943Y0272042D01*
X0299804Y0272025D01*
X0299664Y0272012D01*
X0299525Y0272003D01*
X0299385Y0271998D01*
X0299245Y0271997D01*
X0299105Y0272000D01*
X0298965Y0272007D01*
X0298826Y0272018D01*
X0298687Y0272033D01*
X0298548Y0272052D01*
X0298410Y0272074D01*
X0298273Y0272101D01*
X0298136Y0272132D01*
X0298001Y0272166D01*
X0297866Y0272204D01*
X0297733Y0272247D01*
X0297601Y0272292D01*
X0297470Y0272342D01*
X0297340Y0272395D01*
X0297213Y0272452D01*
X0297087Y0272513D01*
X0296962Y0272577D01*
X0296840Y0272645D01*
X0296719Y0272716D01*
X0296601Y0272790D01*
X0296485Y0272868D01*
X0296371Y0272949D01*
X0296259Y0273034D01*
X0296150Y0273121D01*
X0296043Y0273211D01*
X0295939Y0273305D01*
X0295838Y0273401D01*
X0295739Y0273501D01*
X0295643Y0273603D01*
X0295551Y0273707D01*
X0295461Y0273815D01*
X0295374Y0273925D01*
X0295291Y0274037D01*
X0295210Y0274151D01*
X0295133Y0274268D01*
X0295060Y0274387D01*
X0294989Y0274508D01*
X0294923Y0274631D01*
X0294859Y0274756D01*
X0294800Y0274882D01*
X0294744Y0275011D01*
X0294691Y0275140D01*
X0294643Y0275271D01*
X0294598Y0275404D01*
X0294557Y0275538D01*
X0294519Y0275673D01*
X0294486Y0275808D01*
X0294456Y0275945D01*
X0294430Y0276083D01*
X0294409Y0276221D01*
X0294391Y0276360D01*
X0294377Y0276499D01*
X0294367Y0276638D01*
X0294361Y0276778D01*
X0294359Y0276918D01*
X0338848Y0276918D02*
X0338850Y0277058D01*
X0338856Y0277198D01*
X0338866Y0277337D01*
X0338880Y0277476D01*
X0338898Y0277615D01*
X0338919Y0277753D01*
X0338945Y0277891D01*
X0338975Y0278028D01*
X0339008Y0278163D01*
X0339046Y0278298D01*
X0339087Y0278432D01*
X0339132Y0278565D01*
X0339180Y0278696D01*
X0339233Y0278825D01*
X0339289Y0278954D01*
X0339348Y0279080D01*
X0339412Y0279205D01*
X0339478Y0279328D01*
X0339549Y0279449D01*
X0339622Y0279568D01*
X0339699Y0279685D01*
X0339780Y0279799D01*
X0339863Y0279911D01*
X0339950Y0280021D01*
X0340040Y0280129D01*
X0340132Y0280233D01*
X0340228Y0280335D01*
X0340327Y0280435D01*
X0340428Y0280531D01*
X0340532Y0280625D01*
X0340639Y0280715D01*
X0340748Y0280802D01*
X0340860Y0280887D01*
X0340974Y0280968D01*
X0341090Y0281046D01*
X0341208Y0281120D01*
X0341329Y0281191D01*
X0341451Y0281259D01*
X0341576Y0281323D01*
X0341702Y0281384D01*
X0341829Y0281441D01*
X0341959Y0281494D01*
X0342090Y0281544D01*
X0342222Y0281589D01*
X0342355Y0281632D01*
X0342490Y0281670D01*
X0342625Y0281704D01*
X0342762Y0281735D01*
X0342899Y0281762D01*
X0343037Y0281784D01*
X0343176Y0281803D01*
X0343315Y0281818D01*
X0343454Y0281829D01*
X0343594Y0281836D01*
X0343734Y0281839D01*
X0343874Y0281838D01*
X0344014Y0281833D01*
X0344153Y0281824D01*
X0344293Y0281811D01*
X0344432Y0281794D01*
X0344570Y0281773D01*
X0344708Y0281749D01*
X0344845Y0281720D01*
X0344981Y0281688D01*
X0345116Y0281651D01*
X0345250Y0281611D01*
X0345383Y0281567D01*
X0345514Y0281519D01*
X0345644Y0281468D01*
X0345773Y0281413D01*
X0345900Y0281354D01*
X0346025Y0281291D01*
X0346148Y0281226D01*
X0346270Y0281156D01*
X0346389Y0281083D01*
X0346507Y0281007D01*
X0346622Y0280928D01*
X0346735Y0280845D01*
X0346845Y0280759D01*
X0346953Y0280670D01*
X0347058Y0280578D01*
X0347161Y0280483D01*
X0347261Y0280385D01*
X0347358Y0280285D01*
X0347452Y0280181D01*
X0347544Y0280075D01*
X0347632Y0279967D01*
X0347717Y0279856D01*
X0347799Y0279742D01*
X0347878Y0279626D01*
X0347953Y0279509D01*
X0348025Y0279389D01*
X0348093Y0279267D01*
X0348158Y0279143D01*
X0348220Y0279017D01*
X0348278Y0278890D01*
X0348332Y0278761D01*
X0348383Y0278630D01*
X0348429Y0278498D01*
X0348472Y0278365D01*
X0348512Y0278231D01*
X0348547Y0278096D01*
X0348579Y0277959D01*
X0348606Y0277822D01*
X0348630Y0277684D01*
X0348650Y0277546D01*
X0348666Y0277407D01*
X0348678Y0277267D01*
X0348686Y0277128D01*
X0348690Y0276988D01*
X0348690Y0276848D01*
X0348686Y0276708D01*
X0348678Y0276569D01*
X0348666Y0276429D01*
X0348650Y0276290D01*
X0348630Y0276152D01*
X0348606Y0276014D01*
X0348579Y0275877D01*
X0348547Y0275740D01*
X0348512Y0275605D01*
X0348472Y0275471D01*
X0348429Y0275338D01*
X0348383Y0275206D01*
X0348332Y0275075D01*
X0348278Y0274946D01*
X0348220Y0274819D01*
X0348158Y0274693D01*
X0348093Y0274569D01*
X0348025Y0274447D01*
X0347953Y0274327D01*
X0347878Y0274210D01*
X0347799Y0274094D01*
X0347717Y0273980D01*
X0347632Y0273869D01*
X0347544Y0273761D01*
X0347452Y0273655D01*
X0347358Y0273551D01*
X0347261Y0273451D01*
X0347161Y0273353D01*
X0347058Y0273258D01*
X0346953Y0273166D01*
X0346845Y0273077D01*
X0346735Y0272991D01*
X0346622Y0272908D01*
X0346507Y0272829D01*
X0346389Y0272753D01*
X0346270Y0272680D01*
X0346148Y0272610D01*
X0346025Y0272545D01*
X0345900Y0272482D01*
X0345773Y0272423D01*
X0345644Y0272368D01*
X0345514Y0272317D01*
X0345383Y0272269D01*
X0345250Y0272225D01*
X0345116Y0272185D01*
X0344981Y0272148D01*
X0344845Y0272116D01*
X0344708Y0272087D01*
X0344570Y0272063D01*
X0344432Y0272042D01*
X0344293Y0272025D01*
X0344153Y0272012D01*
X0344014Y0272003D01*
X0343874Y0271998D01*
X0343734Y0271997D01*
X0343594Y0272000D01*
X0343454Y0272007D01*
X0343315Y0272018D01*
X0343176Y0272033D01*
X0343037Y0272052D01*
X0342899Y0272074D01*
X0342762Y0272101D01*
X0342625Y0272132D01*
X0342490Y0272166D01*
X0342355Y0272204D01*
X0342222Y0272247D01*
X0342090Y0272292D01*
X0341959Y0272342D01*
X0341829Y0272395D01*
X0341702Y0272452D01*
X0341576Y0272513D01*
X0341451Y0272577D01*
X0341329Y0272645D01*
X0341208Y0272716D01*
X0341090Y0272790D01*
X0340974Y0272868D01*
X0340860Y0272949D01*
X0340748Y0273034D01*
X0340639Y0273121D01*
X0340532Y0273211D01*
X0340428Y0273305D01*
X0340327Y0273401D01*
X0340228Y0273501D01*
X0340132Y0273603D01*
X0340040Y0273707D01*
X0339950Y0273815D01*
X0339863Y0273925D01*
X0339780Y0274037D01*
X0339699Y0274151D01*
X0339622Y0274268D01*
X0339549Y0274387D01*
X0339478Y0274508D01*
X0339412Y0274631D01*
X0339348Y0274756D01*
X0339289Y0274882D01*
X0339233Y0275011D01*
X0339180Y0275140D01*
X0339132Y0275271D01*
X0339087Y0275404D01*
X0339046Y0275538D01*
X0339008Y0275673D01*
X0338975Y0275808D01*
X0338945Y0275945D01*
X0338919Y0276083D01*
X0338898Y0276221D01*
X0338880Y0276360D01*
X0338866Y0276499D01*
X0338856Y0276638D01*
X0338850Y0276778D01*
X0338848Y0276918D01*
X0355501Y0276918D02*
X0355503Y0277058D01*
X0355509Y0277198D01*
X0355519Y0277337D01*
X0355533Y0277476D01*
X0355551Y0277615D01*
X0355572Y0277753D01*
X0355598Y0277891D01*
X0355628Y0278028D01*
X0355661Y0278163D01*
X0355699Y0278298D01*
X0355740Y0278432D01*
X0355785Y0278565D01*
X0355833Y0278696D01*
X0355886Y0278825D01*
X0355942Y0278954D01*
X0356001Y0279080D01*
X0356065Y0279205D01*
X0356131Y0279328D01*
X0356202Y0279449D01*
X0356275Y0279568D01*
X0356352Y0279685D01*
X0356433Y0279799D01*
X0356516Y0279911D01*
X0356603Y0280021D01*
X0356693Y0280129D01*
X0356785Y0280233D01*
X0356881Y0280335D01*
X0356980Y0280435D01*
X0357081Y0280531D01*
X0357185Y0280625D01*
X0357292Y0280715D01*
X0357401Y0280802D01*
X0357513Y0280887D01*
X0357627Y0280968D01*
X0357743Y0281046D01*
X0357861Y0281120D01*
X0357982Y0281191D01*
X0358104Y0281259D01*
X0358229Y0281323D01*
X0358355Y0281384D01*
X0358482Y0281441D01*
X0358612Y0281494D01*
X0358743Y0281544D01*
X0358875Y0281589D01*
X0359008Y0281632D01*
X0359143Y0281670D01*
X0359278Y0281704D01*
X0359415Y0281735D01*
X0359552Y0281762D01*
X0359690Y0281784D01*
X0359829Y0281803D01*
X0359968Y0281818D01*
X0360107Y0281829D01*
X0360247Y0281836D01*
X0360387Y0281839D01*
X0360527Y0281838D01*
X0360667Y0281833D01*
X0360806Y0281824D01*
X0360946Y0281811D01*
X0361085Y0281794D01*
X0361223Y0281773D01*
X0361361Y0281749D01*
X0361498Y0281720D01*
X0361634Y0281688D01*
X0361769Y0281651D01*
X0361903Y0281611D01*
X0362036Y0281567D01*
X0362167Y0281519D01*
X0362297Y0281468D01*
X0362426Y0281413D01*
X0362553Y0281354D01*
X0362678Y0281291D01*
X0362801Y0281226D01*
X0362923Y0281156D01*
X0363042Y0281083D01*
X0363160Y0281007D01*
X0363275Y0280928D01*
X0363388Y0280845D01*
X0363498Y0280759D01*
X0363606Y0280670D01*
X0363711Y0280578D01*
X0363814Y0280483D01*
X0363914Y0280385D01*
X0364011Y0280285D01*
X0364105Y0280181D01*
X0364197Y0280075D01*
X0364285Y0279967D01*
X0364370Y0279856D01*
X0364452Y0279742D01*
X0364531Y0279626D01*
X0364606Y0279509D01*
X0364678Y0279389D01*
X0364746Y0279267D01*
X0364811Y0279143D01*
X0364873Y0279017D01*
X0364931Y0278890D01*
X0364985Y0278761D01*
X0365036Y0278630D01*
X0365082Y0278498D01*
X0365125Y0278365D01*
X0365165Y0278231D01*
X0365200Y0278096D01*
X0365232Y0277959D01*
X0365259Y0277822D01*
X0365283Y0277684D01*
X0365303Y0277546D01*
X0365319Y0277407D01*
X0365331Y0277267D01*
X0365339Y0277128D01*
X0365343Y0276988D01*
X0365343Y0276848D01*
X0365339Y0276708D01*
X0365331Y0276569D01*
X0365319Y0276429D01*
X0365303Y0276290D01*
X0365283Y0276152D01*
X0365259Y0276014D01*
X0365232Y0275877D01*
X0365200Y0275740D01*
X0365165Y0275605D01*
X0365125Y0275471D01*
X0365082Y0275338D01*
X0365036Y0275206D01*
X0364985Y0275075D01*
X0364931Y0274946D01*
X0364873Y0274819D01*
X0364811Y0274693D01*
X0364746Y0274569D01*
X0364678Y0274447D01*
X0364606Y0274327D01*
X0364531Y0274210D01*
X0364452Y0274094D01*
X0364370Y0273980D01*
X0364285Y0273869D01*
X0364197Y0273761D01*
X0364105Y0273655D01*
X0364011Y0273551D01*
X0363914Y0273451D01*
X0363814Y0273353D01*
X0363711Y0273258D01*
X0363606Y0273166D01*
X0363498Y0273077D01*
X0363388Y0272991D01*
X0363275Y0272908D01*
X0363160Y0272829D01*
X0363042Y0272753D01*
X0362923Y0272680D01*
X0362801Y0272610D01*
X0362678Y0272545D01*
X0362553Y0272482D01*
X0362426Y0272423D01*
X0362297Y0272368D01*
X0362167Y0272317D01*
X0362036Y0272269D01*
X0361903Y0272225D01*
X0361769Y0272185D01*
X0361634Y0272148D01*
X0361498Y0272116D01*
X0361361Y0272087D01*
X0361223Y0272063D01*
X0361085Y0272042D01*
X0360946Y0272025D01*
X0360806Y0272012D01*
X0360667Y0272003D01*
X0360527Y0271998D01*
X0360387Y0271997D01*
X0360247Y0272000D01*
X0360107Y0272007D01*
X0359968Y0272018D01*
X0359829Y0272033D01*
X0359690Y0272052D01*
X0359552Y0272074D01*
X0359415Y0272101D01*
X0359278Y0272132D01*
X0359143Y0272166D01*
X0359008Y0272204D01*
X0358875Y0272247D01*
X0358743Y0272292D01*
X0358612Y0272342D01*
X0358482Y0272395D01*
X0358355Y0272452D01*
X0358229Y0272513D01*
X0358104Y0272577D01*
X0357982Y0272645D01*
X0357861Y0272716D01*
X0357743Y0272790D01*
X0357627Y0272868D01*
X0357513Y0272949D01*
X0357401Y0273034D01*
X0357292Y0273121D01*
X0357185Y0273211D01*
X0357081Y0273305D01*
X0356980Y0273401D01*
X0356881Y0273501D01*
X0356785Y0273603D01*
X0356693Y0273707D01*
X0356603Y0273815D01*
X0356516Y0273925D01*
X0356433Y0274037D01*
X0356352Y0274151D01*
X0356275Y0274268D01*
X0356202Y0274387D01*
X0356131Y0274508D01*
X0356065Y0274631D01*
X0356001Y0274756D01*
X0355942Y0274882D01*
X0355886Y0275011D01*
X0355833Y0275140D01*
X0355785Y0275271D01*
X0355740Y0275404D01*
X0355699Y0275538D01*
X0355661Y0275673D01*
X0355628Y0275808D01*
X0355598Y0275945D01*
X0355572Y0276083D01*
X0355551Y0276221D01*
X0355533Y0276360D01*
X0355519Y0276499D01*
X0355509Y0276638D01*
X0355503Y0276778D01*
X0355501Y0276918D01*
X0346682Y0295894D02*
X0346684Y0296042D01*
X0346690Y0296190D01*
X0346700Y0296338D01*
X0346714Y0296485D01*
X0346732Y0296632D01*
X0346753Y0296778D01*
X0346779Y0296924D01*
X0346809Y0297069D01*
X0346842Y0297213D01*
X0346880Y0297356D01*
X0346921Y0297498D01*
X0346966Y0297639D01*
X0347014Y0297779D01*
X0347067Y0297918D01*
X0347123Y0298055D01*
X0347183Y0298190D01*
X0347246Y0298324D01*
X0347313Y0298456D01*
X0347384Y0298586D01*
X0347458Y0298714D01*
X0347535Y0298840D01*
X0347616Y0298964D01*
X0347700Y0299086D01*
X0347787Y0299205D01*
X0347878Y0299322D01*
X0347972Y0299437D01*
X0348068Y0299549D01*
X0348168Y0299659D01*
X0348270Y0299765D01*
X0348376Y0299869D01*
X0348484Y0299970D01*
X0348595Y0300068D01*
X0348708Y0300164D01*
X0348824Y0300256D01*
X0348942Y0300345D01*
X0349063Y0300430D01*
X0349186Y0300513D01*
X0349311Y0300592D01*
X0349438Y0300668D01*
X0349567Y0300740D01*
X0349698Y0300809D01*
X0349831Y0300874D01*
X0349966Y0300935D01*
X0350102Y0300993D01*
X0350239Y0301048D01*
X0350378Y0301098D01*
X0350519Y0301145D01*
X0350660Y0301188D01*
X0350803Y0301228D01*
X0350947Y0301263D01*
X0351091Y0301295D01*
X0351237Y0301322D01*
X0351383Y0301346D01*
X0351530Y0301366D01*
X0351677Y0301382D01*
X0351824Y0301394D01*
X0351972Y0301402D01*
X0352120Y0301406D01*
X0352268Y0301406D01*
X0352416Y0301402D01*
X0352564Y0301394D01*
X0352711Y0301382D01*
X0352858Y0301366D01*
X0353005Y0301346D01*
X0353151Y0301322D01*
X0353297Y0301295D01*
X0353441Y0301263D01*
X0353585Y0301228D01*
X0353728Y0301188D01*
X0353869Y0301145D01*
X0354010Y0301098D01*
X0354149Y0301048D01*
X0354286Y0300993D01*
X0354422Y0300935D01*
X0354557Y0300874D01*
X0354690Y0300809D01*
X0354821Y0300740D01*
X0354950Y0300668D01*
X0355077Y0300592D01*
X0355202Y0300513D01*
X0355325Y0300430D01*
X0355446Y0300345D01*
X0355564Y0300256D01*
X0355680Y0300164D01*
X0355793Y0300068D01*
X0355904Y0299970D01*
X0356012Y0299869D01*
X0356118Y0299765D01*
X0356220Y0299659D01*
X0356320Y0299549D01*
X0356416Y0299437D01*
X0356510Y0299322D01*
X0356601Y0299205D01*
X0356688Y0299086D01*
X0356772Y0298964D01*
X0356853Y0298840D01*
X0356930Y0298714D01*
X0357004Y0298586D01*
X0357075Y0298456D01*
X0357142Y0298324D01*
X0357205Y0298190D01*
X0357265Y0298055D01*
X0357321Y0297918D01*
X0357374Y0297779D01*
X0357422Y0297639D01*
X0357467Y0297498D01*
X0357508Y0297356D01*
X0357546Y0297213D01*
X0357579Y0297069D01*
X0357609Y0296924D01*
X0357635Y0296778D01*
X0357656Y0296632D01*
X0357674Y0296485D01*
X0357688Y0296338D01*
X0357698Y0296190D01*
X0357704Y0296042D01*
X0357706Y0295894D01*
X0357704Y0295746D01*
X0357698Y0295598D01*
X0357688Y0295450D01*
X0357674Y0295303D01*
X0357656Y0295156D01*
X0357635Y0295010D01*
X0357609Y0294864D01*
X0357579Y0294719D01*
X0357546Y0294575D01*
X0357508Y0294432D01*
X0357467Y0294290D01*
X0357422Y0294149D01*
X0357374Y0294009D01*
X0357321Y0293870D01*
X0357265Y0293733D01*
X0357205Y0293598D01*
X0357142Y0293464D01*
X0357075Y0293332D01*
X0357004Y0293202D01*
X0356930Y0293074D01*
X0356853Y0292948D01*
X0356772Y0292824D01*
X0356688Y0292702D01*
X0356601Y0292583D01*
X0356510Y0292466D01*
X0356416Y0292351D01*
X0356320Y0292239D01*
X0356220Y0292129D01*
X0356118Y0292023D01*
X0356012Y0291919D01*
X0355904Y0291818D01*
X0355793Y0291720D01*
X0355680Y0291624D01*
X0355564Y0291532D01*
X0355446Y0291443D01*
X0355325Y0291358D01*
X0355202Y0291275D01*
X0355077Y0291196D01*
X0354950Y0291120D01*
X0354821Y0291048D01*
X0354690Y0290979D01*
X0354557Y0290914D01*
X0354422Y0290853D01*
X0354286Y0290795D01*
X0354149Y0290740D01*
X0354010Y0290690D01*
X0353869Y0290643D01*
X0353728Y0290600D01*
X0353585Y0290560D01*
X0353441Y0290525D01*
X0353297Y0290493D01*
X0353151Y0290466D01*
X0353005Y0290442D01*
X0352858Y0290422D01*
X0352711Y0290406D01*
X0352564Y0290394D01*
X0352416Y0290386D01*
X0352268Y0290382D01*
X0352120Y0290382D01*
X0351972Y0290386D01*
X0351824Y0290394D01*
X0351677Y0290406D01*
X0351530Y0290422D01*
X0351383Y0290442D01*
X0351237Y0290466D01*
X0351091Y0290493D01*
X0350947Y0290525D01*
X0350803Y0290560D01*
X0350660Y0290600D01*
X0350519Y0290643D01*
X0350378Y0290690D01*
X0350239Y0290740D01*
X0350102Y0290795D01*
X0349966Y0290853D01*
X0349831Y0290914D01*
X0349698Y0290979D01*
X0349567Y0291048D01*
X0349438Y0291120D01*
X0349311Y0291196D01*
X0349186Y0291275D01*
X0349063Y0291358D01*
X0348942Y0291443D01*
X0348824Y0291532D01*
X0348708Y0291624D01*
X0348595Y0291720D01*
X0348484Y0291818D01*
X0348376Y0291919D01*
X0348270Y0292023D01*
X0348168Y0292129D01*
X0348068Y0292239D01*
X0347972Y0292351D01*
X0347878Y0292466D01*
X0347787Y0292583D01*
X0347700Y0292702D01*
X0347616Y0292824D01*
X0347535Y0292948D01*
X0347458Y0293074D01*
X0347384Y0293202D01*
X0347313Y0293332D01*
X0347246Y0293464D01*
X0347183Y0293598D01*
X0347123Y0293733D01*
X0347067Y0293870D01*
X0347014Y0294009D01*
X0346966Y0294149D01*
X0346921Y0294290D01*
X0346880Y0294432D01*
X0346842Y0294575D01*
X0346809Y0294719D01*
X0346779Y0294864D01*
X0346753Y0295010D01*
X0346732Y0295156D01*
X0346714Y0295303D01*
X0346700Y0295450D01*
X0346690Y0295598D01*
X0346684Y0295746D01*
X0346682Y0295894D01*
X0399989Y0276918D02*
X0399991Y0277058D01*
X0399997Y0277198D01*
X0400007Y0277337D01*
X0400021Y0277476D01*
X0400039Y0277615D01*
X0400060Y0277753D01*
X0400086Y0277891D01*
X0400116Y0278028D01*
X0400149Y0278163D01*
X0400187Y0278298D01*
X0400228Y0278432D01*
X0400273Y0278565D01*
X0400321Y0278696D01*
X0400374Y0278825D01*
X0400430Y0278954D01*
X0400489Y0279080D01*
X0400553Y0279205D01*
X0400619Y0279328D01*
X0400690Y0279449D01*
X0400763Y0279568D01*
X0400840Y0279685D01*
X0400921Y0279799D01*
X0401004Y0279911D01*
X0401091Y0280021D01*
X0401181Y0280129D01*
X0401273Y0280233D01*
X0401369Y0280335D01*
X0401468Y0280435D01*
X0401569Y0280531D01*
X0401673Y0280625D01*
X0401780Y0280715D01*
X0401889Y0280802D01*
X0402001Y0280887D01*
X0402115Y0280968D01*
X0402231Y0281046D01*
X0402349Y0281120D01*
X0402470Y0281191D01*
X0402592Y0281259D01*
X0402717Y0281323D01*
X0402843Y0281384D01*
X0402970Y0281441D01*
X0403100Y0281494D01*
X0403231Y0281544D01*
X0403363Y0281589D01*
X0403496Y0281632D01*
X0403631Y0281670D01*
X0403766Y0281704D01*
X0403903Y0281735D01*
X0404040Y0281762D01*
X0404178Y0281784D01*
X0404317Y0281803D01*
X0404456Y0281818D01*
X0404595Y0281829D01*
X0404735Y0281836D01*
X0404875Y0281839D01*
X0405015Y0281838D01*
X0405155Y0281833D01*
X0405294Y0281824D01*
X0405434Y0281811D01*
X0405573Y0281794D01*
X0405711Y0281773D01*
X0405849Y0281749D01*
X0405986Y0281720D01*
X0406122Y0281688D01*
X0406257Y0281651D01*
X0406391Y0281611D01*
X0406524Y0281567D01*
X0406655Y0281519D01*
X0406785Y0281468D01*
X0406914Y0281413D01*
X0407041Y0281354D01*
X0407166Y0281291D01*
X0407289Y0281226D01*
X0407411Y0281156D01*
X0407530Y0281083D01*
X0407648Y0281007D01*
X0407763Y0280928D01*
X0407876Y0280845D01*
X0407986Y0280759D01*
X0408094Y0280670D01*
X0408199Y0280578D01*
X0408302Y0280483D01*
X0408402Y0280385D01*
X0408499Y0280285D01*
X0408593Y0280181D01*
X0408685Y0280075D01*
X0408773Y0279967D01*
X0408858Y0279856D01*
X0408940Y0279742D01*
X0409019Y0279626D01*
X0409094Y0279509D01*
X0409166Y0279389D01*
X0409234Y0279267D01*
X0409299Y0279143D01*
X0409361Y0279017D01*
X0409419Y0278890D01*
X0409473Y0278761D01*
X0409524Y0278630D01*
X0409570Y0278498D01*
X0409613Y0278365D01*
X0409653Y0278231D01*
X0409688Y0278096D01*
X0409720Y0277959D01*
X0409747Y0277822D01*
X0409771Y0277684D01*
X0409791Y0277546D01*
X0409807Y0277407D01*
X0409819Y0277267D01*
X0409827Y0277128D01*
X0409831Y0276988D01*
X0409831Y0276848D01*
X0409827Y0276708D01*
X0409819Y0276569D01*
X0409807Y0276429D01*
X0409791Y0276290D01*
X0409771Y0276152D01*
X0409747Y0276014D01*
X0409720Y0275877D01*
X0409688Y0275740D01*
X0409653Y0275605D01*
X0409613Y0275471D01*
X0409570Y0275338D01*
X0409524Y0275206D01*
X0409473Y0275075D01*
X0409419Y0274946D01*
X0409361Y0274819D01*
X0409299Y0274693D01*
X0409234Y0274569D01*
X0409166Y0274447D01*
X0409094Y0274327D01*
X0409019Y0274210D01*
X0408940Y0274094D01*
X0408858Y0273980D01*
X0408773Y0273869D01*
X0408685Y0273761D01*
X0408593Y0273655D01*
X0408499Y0273551D01*
X0408402Y0273451D01*
X0408302Y0273353D01*
X0408199Y0273258D01*
X0408094Y0273166D01*
X0407986Y0273077D01*
X0407876Y0272991D01*
X0407763Y0272908D01*
X0407648Y0272829D01*
X0407530Y0272753D01*
X0407411Y0272680D01*
X0407289Y0272610D01*
X0407166Y0272545D01*
X0407041Y0272482D01*
X0406914Y0272423D01*
X0406785Y0272368D01*
X0406655Y0272317D01*
X0406524Y0272269D01*
X0406391Y0272225D01*
X0406257Y0272185D01*
X0406122Y0272148D01*
X0405986Y0272116D01*
X0405849Y0272087D01*
X0405711Y0272063D01*
X0405573Y0272042D01*
X0405434Y0272025D01*
X0405294Y0272012D01*
X0405155Y0272003D01*
X0405015Y0271998D01*
X0404875Y0271997D01*
X0404735Y0272000D01*
X0404595Y0272007D01*
X0404456Y0272018D01*
X0404317Y0272033D01*
X0404178Y0272052D01*
X0404040Y0272074D01*
X0403903Y0272101D01*
X0403766Y0272132D01*
X0403631Y0272166D01*
X0403496Y0272204D01*
X0403363Y0272247D01*
X0403231Y0272292D01*
X0403100Y0272342D01*
X0402970Y0272395D01*
X0402843Y0272452D01*
X0402717Y0272513D01*
X0402592Y0272577D01*
X0402470Y0272645D01*
X0402349Y0272716D01*
X0402231Y0272790D01*
X0402115Y0272868D01*
X0402001Y0272949D01*
X0401889Y0273034D01*
X0401780Y0273121D01*
X0401673Y0273211D01*
X0401569Y0273305D01*
X0401468Y0273401D01*
X0401369Y0273501D01*
X0401273Y0273603D01*
X0401181Y0273707D01*
X0401091Y0273815D01*
X0401004Y0273925D01*
X0400921Y0274037D01*
X0400840Y0274151D01*
X0400763Y0274268D01*
X0400690Y0274387D01*
X0400619Y0274508D01*
X0400553Y0274631D01*
X0400489Y0274756D01*
X0400430Y0274882D01*
X0400374Y0275011D01*
X0400321Y0275140D01*
X0400273Y0275271D01*
X0400228Y0275404D01*
X0400187Y0275538D01*
X0400149Y0275673D01*
X0400116Y0275808D01*
X0400086Y0275945D01*
X0400060Y0276083D01*
X0400039Y0276221D01*
X0400021Y0276360D01*
X0400007Y0276499D01*
X0399997Y0276638D01*
X0399991Y0276778D01*
X0399989Y0276918D01*
D11*
X0319995Y0236404D02*
X0319995Y0232200D01*
X0319995Y0233601D02*
X0317893Y0233601D01*
X0317193Y0234302D01*
X0317193Y0235703D01*
X0317893Y0236404D01*
X0319995Y0236404D01*
X0318594Y0233601D02*
X0317193Y0232200D01*
X0315391Y0232200D02*
X0312589Y0232200D01*
X0313990Y0232200D02*
X0313990Y0236404D01*
X0315391Y0235002D01*
X0310787Y0234302D02*
X0310787Y0232901D01*
X0310087Y0232200D01*
X0308686Y0232200D01*
X0307985Y0232901D01*
X0307985Y0233601D01*
X0308686Y0234302D01*
X0310787Y0234302D01*
X0309386Y0235703D01*
X0307985Y0236404D01*
X0275940Y0235570D02*
X0273838Y0235570D01*
X0273138Y0236270D01*
X0273138Y0237671D01*
X0273838Y0238372D01*
X0275940Y0238372D01*
X0275940Y0234169D01*
X0274539Y0235570D02*
X0273138Y0234169D01*
X0271336Y0234169D02*
X0268534Y0234169D01*
X0269935Y0234169D02*
X0269935Y0238372D01*
X0271336Y0236971D01*
X0266732Y0238372D02*
X0263930Y0238372D01*
X0263930Y0237671D01*
X0266732Y0234869D01*
X0266732Y0234169D01*
X0236498Y0234152D02*
X0234397Y0234152D01*
X0233696Y0234853D01*
X0233696Y0236254D01*
X0234397Y0236955D01*
X0236498Y0236955D01*
X0236498Y0232751D01*
X0235097Y0234152D02*
X0233696Y0232751D01*
X0231895Y0232751D02*
X0229092Y0232751D01*
X0230493Y0232751D02*
X0230493Y0236955D01*
X0231895Y0235554D01*
X0227291Y0235554D02*
X0227291Y0236254D01*
X0226590Y0236955D01*
X0225189Y0236955D01*
X0224488Y0236254D01*
X0224488Y0235554D01*
X0225189Y0234853D01*
X0226590Y0234853D01*
X0227291Y0235554D01*
X0226590Y0234853D02*
X0227291Y0234152D01*
X0227291Y0233452D01*
X0226590Y0232751D01*
X0225189Y0232751D01*
X0224488Y0233452D01*
X0224488Y0234152D01*
X0225189Y0234853D01*
X0193864Y0235182D02*
X0193164Y0233781D01*
X0191762Y0232380D01*
X0191762Y0234481D01*
X0191062Y0235182D01*
X0190361Y0235182D01*
X0189661Y0234481D01*
X0189661Y0233080D01*
X0190361Y0232380D01*
X0191762Y0232380D01*
X0191762Y0230578D02*
X0191062Y0229877D01*
X0191062Y0227776D01*
X0191062Y0229177D02*
X0189661Y0230578D01*
X0191762Y0230578D02*
X0193164Y0230578D01*
X0193864Y0229877D01*
X0193864Y0227776D01*
X0189661Y0227776D01*
X0186974Y0228524D02*
X0186974Y0230625D01*
X0186274Y0231326D01*
X0184873Y0231326D01*
X0184172Y0230625D01*
X0184172Y0228524D01*
X0184172Y0229925D02*
X0182771Y0231326D01*
X0182771Y0233128D02*
X0183471Y0233128D01*
X0186274Y0235930D01*
X0186974Y0235930D01*
X0186974Y0233128D01*
X0186974Y0228524D02*
X0182771Y0228524D01*
X0170264Y0223217D02*
X0170266Y0223305D01*
X0170272Y0223393D01*
X0170282Y0223481D01*
X0170296Y0223569D01*
X0170313Y0223655D01*
X0170335Y0223741D01*
X0170360Y0223825D01*
X0170390Y0223909D01*
X0170422Y0223991D01*
X0170459Y0224071D01*
X0170499Y0224150D01*
X0170543Y0224227D01*
X0170590Y0224302D01*
X0170640Y0224374D01*
X0170694Y0224445D01*
X0170750Y0224512D01*
X0170810Y0224578D01*
X0170872Y0224640D01*
X0170938Y0224700D01*
X0171005Y0224756D01*
X0171076Y0224810D01*
X0171148Y0224860D01*
X0171223Y0224907D01*
X0171300Y0224951D01*
X0171379Y0224991D01*
X0171459Y0225028D01*
X0171541Y0225060D01*
X0171625Y0225090D01*
X0171709Y0225115D01*
X0171795Y0225137D01*
X0171881Y0225154D01*
X0171969Y0225168D01*
X0172057Y0225178D01*
X0172145Y0225184D01*
X0172233Y0225186D01*
X0172321Y0225184D01*
X0172409Y0225178D01*
X0172497Y0225168D01*
X0172585Y0225154D01*
X0172671Y0225137D01*
X0172757Y0225115D01*
X0172841Y0225090D01*
X0172925Y0225060D01*
X0173007Y0225028D01*
X0173087Y0224991D01*
X0173166Y0224951D01*
X0173243Y0224907D01*
X0173318Y0224860D01*
X0173390Y0224810D01*
X0173461Y0224756D01*
X0173528Y0224700D01*
X0173594Y0224640D01*
X0173656Y0224578D01*
X0173716Y0224512D01*
X0173772Y0224445D01*
X0173826Y0224374D01*
X0173876Y0224302D01*
X0173923Y0224227D01*
X0173967Y0224150D01*
X0174007Y0224071D01*
X0174044Y0223991D01*
X0174076Y0223909D01*
X0174106Y0223825D01*
X0174131Y0223741D01*
X0174153Y0223655D01*
X0174170Y0223569D01*
X0174184Y0223481D01*
X0174194Y0223393D01*
X0174200Y0223305D01*
X0174202Y0223217D01*
X0174200Y0223129D01*
X0174194Y0223041D01*
X0174184Y0222953D01*
X0174170Y0222865D01*
X0174153Y0222779D01*
X0174131Y0222693D01*
X0174106Y0222609D01*
X0174076Y0222525D01*
X0174044Y0222443D01*
X0174007Y0222363D01*
X0173967Y0222284D01*
X0173923Y0222207D01*
X0173876Y0222132D01*
X0173826Y0222060D01*
X0173772Y0221989D01*
X0173716Y0221922D01*
X0173656Y0221856D01*
X0173594Y0221794D01*
X0173528Y0221734D01*
X0173461Y0221678D01*
X0173390Y0221624D01*
X0173318Y0221574D01*
X0173243Y0221527D01*
X0173166Y0221483D01*
X0173087Y0221443D01*
X0173007Y0221406D01*
X0172925Y0221374D01*
X0172841Y0221344D01*
X0172757Y0221319D01*
X0172671Y0221297D01*
X0172585Y0221280D01*
X0172497Y0221266D01*
X0172409Y0221256D01*
X0172321Y0221250D01*
X0172233Y0221248D01*
X0172145Y0221250D01*
X0172057Y0221256D01*
X0171969Y0221266D01*
X0171881Y0221280D01*
X0171795Y0221297D01*
X0171709Y0221319D01*
X0171625Y0221344D01*
X0171541Y0221374D01*
X0171459Y0221406D01*
X0171379Y0221443D01*
X0171300Y0221483D01*
X0171223Y0221527D01*
X0171148Y0221574D01*
X0171076Y0221624D01*
X0171005Y0221678D01*
X0170938Y0221734D01*
X0170872Y0221794D01*
X0170810Y0221856D01*
X0170750Y0221922D01*
X0170694Y0221989D01*
X0170640Y0222060D01*
X0170590Y0222132D01*
X0170543Y0222207D01*
X0170499Y0222284D01*
X0170459Y0222363D01*
X0170422Y0222443D01*
X0170390Y0222525D01*
X0170360Y0222609D01*
X0170335Y0222693D01*
X0170313Y0222779D01*
X0170296Y0222865D01*
X0170282Y0222953D01*
X0170272Y0223041D01*
X0170266Y0223129D01*
X0170264Y0223217D01*
X0171218Y0233952D02*
X0171218Y0238156D01*
X0169116Y0238156D01*
X0168416Y0237455D01*
X0168416Y0236054D01*
X0169116Y0235353D01*
X0171218Y0235353D01*
X0169817Y0235353D02*
X0168416Y0233952D01*
X0166614Y0234653D02*
X0165914Y0233952D01*
X0164512Y0233952D01*
X0163812Y0234653D01*
X0163812Y0237455D01*
X0164512Y0238156D01*
X0165914Y0238156D01*
X0166614Y0237455D01*
X0166614Y0236754D01*
X0165914Y0236054D01*
X0163812Y0236054D01*
X0135649Y0215676D02*
X0133548Y0215676D01*
X0132847Y0214975D01*
X0132847Y0212173D01*
X0133548Y0211472D01*
X0135649Y0211472D01*
X0135649Y0215676D01*
X0131045Y0214975D02*
X0130345Y0215676D01*
X0128944Y0215676D01*
X0128243Y0214975D01*
X0128243Y0214275D01*
X0131045Y0211472D01*
X0128243Y0211472D01*
X0141452Y0211715D02*
X0142152Y0211015D01*
X0143554Y0211015D01*
X0144254Y0211715D01*
X0144254Y0212416D01*
X0143554Y0213117D01*
X0142152Y0213117D01*
X0141452Y0212416D01*
X0141452Y0211715D01*
X0142152Y0211015D02*
X0141452Y0210314D01*
X0141452Y0209614D01*
X0142152Y0208913D01*
X0143554Y0208913D01*
X0144254Y0209614D01*
X0144254Y0210314D01*
X0143554Y0211015D01*
X0146056Y0211015D02*
X0146056Y0212416D01*
X0146756Y0213117D01*
X0148858Y0213117D01*
X0148858Y0208913D01*
X0148858Y0210314D02*
X0146756Y0210314D01*
X0146056Y0211015D01*
X0147457Y0210314D02*
X0146056Y0208913D01*
X0162099Y0204404D02*
X0162800Y0205104D01*
X0164201Y0205104D01*
X0164902Y0204404D01*
X0166703Y0205104D02*
X0166703Y0201601D01*
X0167404Y0200901D01*
X0168805Y0200901D01*
X0169505Y0201601D01*
X0169505Y0205104D01*
X0164902Y0200901D02*
X0162099Y0203703D01*
X0162099Y0204404D01*
X0162099Y0200901D02*
X0164902Y0200901D01*
X0175512Y0192179D02*
X0176212Y0192880D01*
X0177614Y0192880D01*
X0178314Y0192179D01*
X0175512Y0192179D02*
X0175512Y0191479D01*
X0178314Y0188676D01*
X0175512Y0188676D01*
X0180116Y0188676D02*
X0182918Y0188676D01*
X0181517Y0188676D02*
X0181517Y0192880D01*
X0182918Y0191479D01*
X0184720Y0192179D02*
X0185420Y0192880D01*
X0187522Y0192880D01*
X0187522Y0188676D01*
X0187522Y0190078D02*
X0185420Y0190078D01*
X0184720Y0190778D01*
X0184720Y0192179D01*
X0186121Y0190078D02*
X0184720Y0188676D01*
X0183688Y0182053D02*
X0182987Y0181353D01*
X0182987Y0179951D01*
X0183688Y0179251D01*
X0185790Y0179251D01*
X0185790Y0177850D02*
X0185790Y0182053D01*
X0183688Y0182053D01*
X0181186Y0180652D02*
X0179785Y0182053D01*
X0179785Y0177850D01*
X0181186Y0177850D02*
X0178383Y0177850D01*
X0176582Y0177850D02*
X0173780Y0177850D01*
X0175181Y0177850D02*
X0175181Y0182053D01*
X0176582Y0180652D01*
X0182987Y0177850D02*
X0184389Y0179251D01*
X0186619Y0165852D02*
X0185918Y0165152D01*
X0185918Y0164451D01*
X0186619Y0163751D01*
X0185918Y0163050D01*
X0185918Y0162349D01*
X0186619Y0161649D01*
X0188020Y0161649D01*
X0188720Y0162349D01*
X0190522Y0162349D02*
X0190522Y0165852D01*
X0188720Y0165152D02*
X0188020Y0165852D01*
X0186619Y0165852D01*
X0186619Y0163751D02*
X0187319Y0163751D01*
X0190522Y0162349D02*
X0191223Y0161649D01*
X0192624Y0161649D01*
X0193324Y0162349D01*
X0193324Y0165852D01*
X0165422Y0162509D02*
X0165424Y0162597D01*
X0165430Y0162685D01*
X0165440Y0162773D01*
X0165454Y0162861D01*
X0165471Y0162947D01*
X0165493Y0163033D01*
X0165518Y0163117D01*
X0165548Y0163201D01*
X0165580Y0163283D01*
X0165617Y0163363D01*
X0165657Y0163442D01*
X0165701Y0163519D01*
X0165748Y0163594D01*
X0165798Y0163666D01*
X0165852Y0163737D01*
X0165908Y0163804D01*
X0165968Y0163870D01*
X0166030Y0163932D01*
X0166096Y0163992D01*
X0166163Y0164048D01*
X0166234Y0164102D01*
X0166306Y0164152D01*
X0166381Y0164199D01*
X0166458Y0164243D01*
X0166537Y0164283D01*
X0166617Y0164320D01*
X0166699Y0164352D01*
X0166783Y0164382D01*
X0166867Y0164407D01*
X0166953Y0164429D01*
X0167039Y0164446D01*
X0167127Y0164460D01*
X0167215Y0164470D01*
X0167303Y0164476D01*
X0167391Y0164478D01*
X0167479Y0164476D01*
X0167567Y0164470D01*
X0167655Y0164460D01*
X0167743Y0164446D01*
X0167829Y0164429D01*
X0167915Y0164407D01*
X0167999Y0164382D01*
X0168083Y0164352D01*
X0168165Y0164320D01*
X0168245Y0164283D01*
X0168324Y0164243D01*
X0168401Y0164199D01*
X0168476Y0164152D01*
X0168548Y0164102D01*
X0168619Y0164048D01*
X0168686Y0163992D01*
X0168752Y0163932D01*
X0168814Y0163870D01*
X0168874Y0163804D01*
X0168930Y0163737D01*
X0168984Y0163666D01*
X0169034Y0163594D01*
X0169081Y0163519D01*
X0169125Y0163442D01*
X0169165Y0163363D01*
X0169202Y0163283D01*
X0169234Y0163201D01*
X0169264Y0163117D01*
X0169289Y0163033D01*
X0169311Y0162947D01*
X0169328Y0162861D01*
X0169342Y0162773D01*
X0169352Y0162685D01*
X0169358Y0162597D01*
X0169360Y0162509D01*
X0169358Y0162421D01*
X0169352Y0162333D01*
X0169342Y0162245D01*
X0169328Y0162157D01*
X0169311Y0162071D01*
X0169289Y0161985D01*
X0169264Y0161901D01*
X0169234Y0161817D01*
X0169202Y0161735D01*
X0169165Y0161655D01*
X0169125Y0161576D01*
X0169081Y0161499D01*
X0169034Y0161424D01*
X0168984Y0161352D01*
X0168930Y0161281D01*
X0168874Y0161214D01*
X0168814Y0161148D01*
X0168752Y0161086D01*
X0168686Y0161026D01*
X0168619Y0160970D01*
X0168548Y0160916D01*
X0168476Y0160866D01*
X0168401Y0160819D01*
X0168324Y0160775D01*
X0168245Y0160735D01*
X0168165Y0160698D01*
X0168083Y0160666D01*
X0167999Y0160636D01*
X0167915Y0160611D01*
X0167829Y0160589D01*
X0167743Y0160572D01*
X0167655Y0160558D01*
X0167567Y0160548D01*
X0167479Y0160542D01*
X0167391Y0160540D01*
X0167303Y0160542D01*
X0167215Y0160548D01*
X0167127Y0160558D01*
X0167039Y0160572D01*
X0166953Y0160589D01*
X0166867Y0160611D01*
X0166783Y0160636D01*
X0166699Y0160666D01*
X0166617Y0160698D01*
X0166537Y0160735D01*
X0166458Y0160775D01*
X0166381Y0160819D01*
X0166306Y0160866D01*
X0166234Y0160916D01*
X0166163Y0160970D01*
X0166096Y0161026D01*
X0166030Y0161086D01*
X0165968Y0161148D01*
X0165908Y0161214D01*
X0165852Y0161281D01*
X0165798Y0161352D01*
X0165748Y0161424D01*
X0165701Y0161499D01*
X0165657Y0161576D01*
X0165617Y0161655D01*
X0165580Y0161735D01*
X0165548Y0161817D01*
X0165518Y0161901D01*
X0165493Y0161985D01*
X0165471Y0162071D01*
X0165454Y0162157D01*
X0165440Y0162245D01*
X0165430Y0162333D01*
X0165424Y0162421D01*
X0165422Y0162509D01*
X0155113Y0159415D02*
X0155113Y0155212D01*
X0155113Y0156613D02*
X0153012Y0156613D01*
X0152311Y0157314D01*
X0152311Y0158715D01*
X0153012Y0159415D01*
X0155113Y0159415D01*
X0153712Y0156613D02*
X0152311Y0155212D01*
X0150509Y0155212D02*
X0147707Y0155212D01*
X0149108Y0155212D02*
X0149108Y0159415D01*
X0150509Y0158014D01*
X0145906Y0158715D02*
X0145205Y0159415D01*
X0143804Y0159415D01*
X0143103Y0158715D01*
X0143103Y0158014D01*
X0143804Y0157314D01*
X0143103Y0156613D01*
X0143103Y0155912D01*
X0143804Y0155212D01*
X0145205Y0155212D01*
X0145906Y0155912D01*
X0144504Y0157314D02*
X0143804Y0157314D01*
X0122731Y0159790D02*
X0122031Y0159090D01*
X0120630Y0159090D01*
X0119929Y0159790D01*
X0118128Y0159090D02*
X0115325Y0159090D01*
X0116726Y0159090D02*
X0116726Y0163293D01*
X0118128Y0161892D01*
X0119929Y0162593D02*
X0120630Y0163293D01*
X0122031Y0163293D01*
X0122731Y0162593D01*
X0122731Y0159790D01*
X0113524Y0159090D02*
X0110721Y0159090D01*
X0112122Y0159090D02*
X0112122Y0163293D01*
X0113524Y0161892D01*
X0108861Y0177180D02*
X0108861Y0181384D01*
X0106759Y0181384D01*
X0106058Y0180683D01*
X0106058Y0179282D01*
X0106759Y0178582D01*
X0108861Y0178582D01*
X0107459Y0178582D02*
X0106058Y0177180D01*
X0104257Y0177180D02*
X0101454Y0179983D01*
X0101454Y0180683D01*
X0102155Y0181384D01*
X0103556Y0181384D01*
X0104257Y0180683D01*
X0104257Y0177180D02*
X0101454Y0177180D01*
X0099653Y0177881D02*
X0098952Y0177180D01*
X0097551Y0177180D01*
X0096850Y0177881D01*
X0096850Y0179282D01*
X0097551Y0179983D01*
X0098252Y0179983D01*
X0099653Y0179282D01*
X0099653Y0181384D01*
X0096850Y0181384D01*
X0084860Y0168805D02*
X0084860Y0165302D01*
X0084159Y0164602D01*
X0082758Y0164602D01*
X0082057Y0165302D01*
X0082057Y0168805D01*
X0080256Y0166703D02*
X0078154Y0166703D01*
X0077454Y0166003D01*
X0077454Y0165302D01*
X0078154Y0164602D01*
X0079555Y0164602D01*
X0080256Y0165302D01*
X0080256Y0166703D01*
X0078855Y0168105D01*
X0077454Y0168805D01*
X0067705Y0158020D02*
X0067707Y0158108D01*
X0067713Y0158196D01*
X0067723Y0158284D01*
X0067737Y0158372D01*
X0067754Y0158458D01*
X0067776Y0158544D01*
X0067801Y0158628D01*
X0067831Y0158712D01*
X0067863Y0158794D01*
X0067900Y0158874D01*
X0067940Y0158953D01*
X0067984Y0159030D01*
X0068031Y0159105D01*
X0068081Y0159177D01*
X0068135Y0159248D01*
X0068191Y0159315D01*
X0068251Y0159381D01*
X0068313Y0159443D01*
X0068379Y0159503D01*
X0068446Y0159559D01*
X0068517Y0159613D01*
X0068589Y0159663D01*
X0068664Y0159710D01*
X0068741Y0159754D01*
X0068820Y0159794D01*
X0068900Y0159831D01*
X0068982Y0159863D01*
X0069066Y0159893D01*
X0069150Y0159918D01*
X0069236Y0159940D01*
X0069322Y0159957D01*
X0069410Y0159971D01*
X0069498Y0159981D01*
X0069586Y0159987D01*
X0069674Y0159989D01*
X0069762Y0159987D01*
X0069850Y0159981D01*
X0069938Y0159971D01*
X0070026Y0159957D01*
X0070112Y0159940D01*
X0070198Y0159918D01*
X0070282Y0159893D01*
X0070366Y0159863D01*
X0070448Y0159831D01*
X0070528Y0159794D01*
X0070607Y0159754D01*
X0070684Y0159710D01*
X0070759Y0159663D01*
X0070831Y0159613D01*
X0070902Y0159559D01*
X0070969Y0159503D01*
X0071035Y0159443D01*
X0071097Y0159381D01*
X0071157Y0159315D01*
X0071213Y0159248D01*
X0071267Y0159177D01*
X0071317Y0159105D01*
X0071364Y0159030D01*
X0071408Y0158953D01*
X0071448Y0158874D01*
X0071485Y0158794D01*
X0071517Y0158712D01*
X0071547Y0158628D01*
X0071572Y0158544D01*
X0071594Y0158458D01*
X0071611Y0158372D01*
X0071625Y0158284D01*
X0071635Y0158196D01*
X0071641Y0158108D01*
X0071643Y0158020D01*
X0071641Y0157932D01*
X0071635Y0157844D01*
X0071625Y0157756D01*
X0071611Y0157668D01*
X0071594Y0157582D01*
X0071572Y0157496D01*
X0071547Y0157412D01*
X0071517Y0157328D01*
X0071485Y0157246D01*
X0071448Y0157166D01*
X0071408Y0157087D01*
X0071364Y0157010D01*
X0071317Y0156935D01*
X0071267Y0156863D01*
X0071213Y0156792D01*
X0071157Y0156725D01*
X0071097Y0156659D01*
X0071035Y0156597D01*
X0070969Y0156537D01*
X0070902Y0156481D01*
X0070831Y0156427D01*
X0070759Y0156377D01*
X0070684Y0156330D01*
X0070607Y0156286D01*
X0070528Y0156246D01*
X0070448Y0156209D01*
X0070366Y0156177D01*
X0070282Y0156147D01*
X0070198Y0156122D01*
X0070112Y0156100D01*
X0070026Y0156083D01*
X0069938Y0156069D01*
X0069850Y0156059D01*
X0069762Y0156053D01*
X0069674Y0156051D01*
X0069586Y0156053D01*
X0069498Y0156059D01*
X0069410Y0156069D01*
X0069322Y0156083D01*
X0069236Y0156100D01*
X0069150Y0156122D01*
X0069066Y0156147D01*
X0068982Y0156177D01*
X0068900Y0156209D01*
X0068820Y0156246D01*
X0068741Y0156286D01*
X0068664Y0156330D01*
X0068589Y0156377D01*
X0068517Y0156427D01*
X0068446Y0156481D01*
X0068379Y0156537D01*
X0068313Y0156597D01*
X0068251Y0156659D01*
X0068191Y0156725D01*
X0068135Y0156792D01*
X0068081Y0156863D01*
X0068031Y0156935D01*
X0067984Y0157010D01*
X0067940Y0157087D01*
X0067900Y0157166D01*
X0067863Y0157246D01*
X0067831Y0157328D01*
X0067801Y0157412D01*
X0067776Y0157496D01*
X0067754Y0157582D01*
X0067737Y0157668D01*
X0067723Y0157756D01*
X0067713Y0157844D01*
X0067707Y0157932D01*
X0067705Y0158020D01*
X0069591Y0139730D02*
X0068891Y0139030D01*
X0068891Y0138329D01*
X0069591Y0137629D01*
X0068891Y0136928D01*
X0068891Y0136227D01*
X0069591Y0135527D01*
X0070992Y0135527D01*
X0071693Y0136227D01*
X0073494Y0135527D02*
X0074896Y0136928D01*
X0074195Y0136928D02*
X0076297Y0136928D01*
X0076297Y0135527D02*
X0076297Y0139730D01*
X0074195Y0139730D01*
X0073494Y0139030D01*
X0073494Y0137629D01*
X0074195Y0136928D01*
X0071693Y0139030D02*
X0070992Y0139730D01*
X0069591Y0139730D01*
X0069591Y0137629D02*
X0070292Y0137629D01*
X0069363Y0128904D02*
X0072165Y0128904D01*
X0072165Y0126802D01*
X0070764Y0127502D01*
X0070064Y0127502D01*
X0069363Y0126802D01*
X0069363Y0125401D01*
X0070064Y0124700D01*
X0071465Y0124700D01*
X0072165Y0125401D01*
X0073967Y0124700D02*
X0075368Y0126101D01*
X0074667Y0126101D02*
X0076769Y0126101D01*
X0076769Y0124700D02*
X0076769Y0128904D01*
X0074667Y0128904D01*
X0073967Y0128203D01*
X0073967Y0126802D01*
X0074667Y0126101D01*
X0074121Y0118077D02*
X0073420Y0117376D01*
X0073420Y0115975D01*
X0074121Y0115274D01*
X0076223Y0115274D01*
X0076223Y0113873D02*
X0076223Y0118077D01*
X0074121Y0118077D01*
X0074822Y0115274D02*
X0073420Y0113873D01*
X0071619Y0115975D02*
X0068817Y0115975D01*
X0069517Y0113873D02*
X0069517Y0118077D01*
X0071619Y0115975D01*
X0041892Y0131373D02*
X0041892Y0135577D01*
X0039790Y0135577D01*
X0039090Y0134876D01*
X0039090Y0133475D01*
X0039790Y0132774D01*
X0041892Y0132774D01*
X0040491Y0132774D02*
X0039090Y0131373D01*
X0037288Y0131373D02*
X0034486Y0134176D01*
X0034486Y0134876D01*
X0035186Y0135577D01*
X0036588Y0135577D01*
X0037288Y0134876D01*
X0032684Y0134176D02*
X0031283Y0135577D01*
X0031283Y0131373D01*
X0032684Y0131373D02*
X0029882Y0131373D01*
X0034486Y0131373D02*
X0037288Y0131373D01*
X0037052Y0145153D02*
X0034250Y0145153D01*
X0032448Y0145153D02*
X0029646Y0147955D01*
X0029646Y0148656D01*
X0030346Y0149356D01*
X0031747Y0149356D01*
X0032448Y0148656D01*
X0034250Y0148656D02*
X0034950Y0149356D01*
X0036351Y0149356D01*
X0037052Y0148656D01*
X0038854Y0148656D02*
X0038854Y0147255D01*
X0039554Y0146554D01*
X0041656Y0146554D01*
X0041656Y0145153D02*
X0041656Y0149356D01*
X0039554Y0149356D01*
X0038854Y0148656D01*
X0040255Y0146554D02*
X0038854Y0145153D01*
X0037052Y0145153D02*
X0034250Y0147955D01*
X0034250Y0148656D01*
X0032448Y0145153D02*
X0029646Y0145153D01*
X0031094Y0159917D02*
X0032495Y0159917D01*
X0033196Y0160617D01*
X0034998Y0159917D02*
X0037800Y0159917D01*
X0034998Y0162719D01*
X0034998Y0163420D01*
X0035698Y0164120D01*
X0037099Y0164120D01*
X0037800Y0163420D01*
X0039602Y0163420D02*
X0040302Y0164120D01*
X0042404Y0164120D01*
X0042404Y0159917D01*
X0042404Y0161318D02*
X0040302Y0161318D01*
X0039602Y0162018D01*
X0039602Y0163420D01*
X0041003Y0161318D02*
X0039602Y0159917D01*
X0033196Y0163420D02*
X0032495Y0164120D01*
X0031094Y0164120D01*
X0030394Y0163420D01*
X0030394Y0162719D01*
X0031094Y0162018D01*
X0030394Y0161318D01*
X0030394Y0160617D01*
X0031094Y0159917D01*
X0031094Y0162018D02*
X0031795Y0162018D01*
X0029874Y0176649D02*
X0029874Y0180852D01*
X0031976Y0178751D01*
X0029173Y0178751D01*
X0033777Y0179451D02*
X0033777Y0180152D01*
X0034478Y0180852D01*
X0035879Y0180852D01*
X0036580Y0180152D01*
X0038381Y0180152D02*
X0038381Y0178751D01*
X0039082Y0178050D01*
X0041183Y0178050D01*
X0039782Y0178050D02*
X0038381Y0176649D01*
X0036580Y0176649D02*
X0033777Y0179451D01*
X0033777Y0176649D02*
X0036580Y0176649D01*
X0038381Y0180152D02*
X0039082Y0180852D01*
X0041183Y0180852D01*
X0041183Y0176649D01*
X0090642Y0199601D02*
X0093445Y0196798D01*
X0093445Y0196098D01*
X0095246Y0196798D02*
X0095246Y0200301D01*
X0093445Y0200301D02*
X0090642Y0200301D01*
X0090642Y0199601D01*
X0095246Y0196798D02*
X0095947Y0196098D01*
X0097348Y0196098D01*
X0098049Y0196798D01*
X0098049Y0200301D01*
X0098532Y0217902D02*
X0098534Y0217990D01*
X0098540Y0218078D01*
X0098550Y0218166D01*
X0098564Y0218254D01*
X0098581Y0218340D01*
X0098603Y0218426D01*
X0098628Y0218510D01*
X0098658Y0218594D01*
X0098690Y0218676D01*
X0098727Y0218756D01*
X0098767Y0218835D01*
X0098811Y0218912D01*
X0098858Y0218987D01*
X0098908Y0219059D01*
X0098962Y0219130D01*
X0099018Y0219197D01*
X0099078Y0219263D01*
X0099140Y0219325D01*
X0099206Y0219385D01*
X0099273Y0219441D01*
X0099344Y0219495D01*
X0099416Y0219545D01*
X0099491Y0219592D01*
X0099568Y0219636D01*
X0099647Y0219676D01*
X0099727Y0219713D01*
X0099809Y0219745D01*
X0099893Y0219775D01*
X0099977Y0219800D01*
X0100063Y0219822D01*
X0100149Y0219839D01*
X0100237Y0219853D01*
X0100325Y0219863D01*
X0100413Y0219869D01*
X0100501Y0219871D01*
X0100589Y0219869D01*
X0100677Y0219863D01*
X0100765Y0219853D01*
X0100853Y0219839D01*
X0100939Y0219822D01*
X0101025Y0219800D01*
X0101109Y0219775D01*
X0101193Y0219745D01*
X0101275Y0219713D01*
X0101355Y0219676D01*
X0101434Y0219636D01*
X0101511Y0219592D01*
X0101586Y0219545D01*
X0101658Y0219495D01*
X0101729Y0219441D01*
X0101796Y0219385D01*
X0101862Y0219325D01*
X0101924Y0219263D01*
X0101984Y0219197D01*
X0102040Y0219130D01*
X0102094Y0219059D01*
X0102144Y0218987D01*
X0102191Y0218912D01*
X0102235Y0218835D01*
X0102275Y0218756D01*
X0102312Y0218676D01*
X0102344Y0218594D01*
X0102374Y0218510D01*
X0102399Y0218426D01*
X0102421Y0218340D01*
X0102438Y0218254D01*
X0102452Y0218166D01*
X0102462Y0218078D01*
X0102468Y0217990D01*
X0102470Y0217902D01*
X0102468Y0217814D01*
X0102462Y0217726D01*
X0102452Y0217638D01*
X0102438Y0217550D01*
X0102421Y0217464D01*
X0102399Y0217378D01*
X0102374Y0217294D01*
X0102344Y0217210D01*
X0102312Y0217128D01*
X0102275Y0217048D01*
X0102235Y0216969D01*
X0102191Y0216892D01*
X0102144Y0216817D01*
X0102094Y0216745D01*
X0102040Y0216674D01*
X0101984Y0216607D01*
X0101924Y0216541D01*
X0101862Y0216479D01*
X0101796Y0216419D01*
X0101729Y0216363D01*
X0101658Y0216309D01*
X0101586Y0216259D01*
X0101511Y0216212D01*
X0101434Y0216168D01*
X0101355Y0216128D01*
X0101275Y0216091D01*
X0101193Y0216059D01*
X0101109Y0216029D01*
X0101025Y0216004D01*
X0100939Y0215982D01*
X0100853Y0215965D01*
X0100765Y0215951D01*
X0100677Y0215941D01*
X0100589Y0215935D01*
X0100501Y0215933D01*
X0100413Y0215935D01*
X0100325Y0215941D01*
X0100237Y0215951D01*
X0100149Y0215965D01*
X0100063Y0215982D01*
X0099977Y0216004D01*
X0099893Y0216029D01*
X0099809Y0216059D01*
X0099727Y0216091D01*
X0099647Y0216128D01*
X0099568Y0216168D01*
X0099491Y0216212D01*
X0099416Y0216259D01*
X0099344Y0216309D01*
X0099273Y0216363D01*
X0099206Y0216419D01*
X0099140Y0216479D01*
X0099078Y0216541D01*
X0099018Y0216607D01*
X0098962Y0216674D01*
X0098908Y0216745D01*
X0098858Y0216817D01*
X0098811Y0216892D01*
X0098767Y0216969D01*
X0098727Y0217048D01*
X0098690Y0217128D01*
X0098658Y0217210D01*
X0098628Y0217294D01*
X0098603Y0217378D01*
X0098581Y0217464D01*
X0098564Y0217550D01*
X0098550Y0217638D01*
X0098540Y0217726D01*
X0098534Y0217814D01*
X0098532Y0217902D01*
X0107205Y0226943D02*
X0110007Y0224141D01*
X0110007Y0223440D01*
X0111809Y0223440D02*
X0114611Y0223440D01*
X0111809Y0226243D01*
X0111809Y0226943D01*
X0112509Y0227644D01*
X0113910Y0227644D01*
X0114611Y0226943D01*
X0116413Y0226943D02*
X0116413Y0225542D01*
X0117113Y0224841D01*
X0119215Y0224841D01*
X0119215Y0223440D02*
X0119215Y0227644D01*
X0117113Y0227644D01*
X0116413Y0226943D01*
X0117814Y0224841D02*
X0116413Y0223440D01*
X0110007Y0227644D02*
X0107205Y0227644D01*
X0107205Y0226943D01*
X0125856Y0232641D02*
X0128658Y0232641D01*
X0127257Y0232641D02*
X0127257Y0236844D01*
X0128658Y0235443D01*
X0130460Y0236144D02*
X0131160Y0236844D01*
X0133262Y0236844D01*
X0133262Y0232641D01*
X0131160Y0232641D01*
X0130460Y0233341D01*
X0130460Y0236144D01*
X0131030Y0195418D02*
X0130329Y0194017D01*
X0128928Y0192616D01*
X0128928Y0194718D01*
X0128227Y0195418D01*
X0127527Y0195418D01*
X0126826Y0194718D01*
X0126826Y0193316D01*
X0127527Y0192616D01*
X0128928Y0192616D01*
X0129628Y0190814D02*
X0130329Y0190814D01*
X0131030Y0190114D01*
X0131030Y0188712D01*
X0130329Y0188012D01*
X0130329Y0186210D02*
X0128928Y0186210D01*
X0128227Y0185510D01*
X0128227Y0183408D01*
X0126826Y0183408D02*
X0131030Y0183408D01*
X0131030Y0185510D01*
X0130329Y0186210D01*
X0128227Y0184809D02*
X0126826Y0186210D01*
X0126826Y0188012D02*
X0129628Y0190814D01*
X0126826Y0190814D02*
X0126826Y0188012D01*
X0125543Y0137762D02*
X0127645Y0135660D01*
X0124843Y0135660D01*
X0125543Y0133558D02*
X0125543Y0137762D01*
X0130848Y0137762D02*
X0130848Y0133558D01*
X0132249Y0133558D02*
X0129446Y0133558D01*
X0132249Y0136361D02*
X0130848Y0137762D01*
X0134050Y0137061D02*
X0134050Y0135660D01*
X0134751Y0134959D01*
X0136853Y0134959D01*
X0136853Y0133558D02*
X0136853Y0137762D01*
X0134751Y0137762D01*
X0134050Y0137061D01*
X0135452Y0134959D02*
X0134050Y0133558D01*
X0152362Y0134007D02*
X0152362Y0132605D01*
X0153063Y0131905D01*
X0154464Y0131905D01*
X0155165Y0132605D01*
X0155165Y0134007D02*
X0153763Y0134707D01*
X0153063Y0134707D01*
X0152362Y0134007D01*
X0152362Y0136108D02*
X0155165Y0136108D01*
X0155165Y0134007D01*
X0156966Y0131905D02*
X0159769Y0131905D01*
X0158367Y0131905D02*
X0158367Y0136108D01*
X0159769Y0134707D01*
X0161570Y0134007D02*
X0162271Y0133306D01*
X0164372Y0133306D01*
X0162971Y0133306D02*
X0161570Y0131905D01*
X0161570Y0134007D02*
X0161570Y0135408D01*
X0162271Y0136108D01*
X0164372Y0136108D01*
X0164372Y0131905D01*
X0186028Y0114671D02*
X0188130Y0112570D01*
X0185328Y0112570D01*
X0186028Y0114671D02*
X0186028Y0110468D01*
X0189931Y0111168D02*
X0189931Y0114671D01*
X0192734Y0114671D02*
X0192734Y0111168D01*
X0192033Y0110468D01*
X0190632Y0110468D01*
X0189931Y0111168D01*
X0164831Y0111328D02*
X0164833Y0111416D01*
X0164839Y0111504D01*
X0164849Y0111592D01*
X0164863Y0111680D01*
X0164880Y0111766D01*
X0164902Y0111852D01*
X0164927Y0111936D01*
X0164957Y0112020D01*
X0164989Y0112102D01*
X0165026Y0112182D01*
X0165066Y0112261D01*
X0165110Y0112338D01*
X0165157Y0112413D01*
X0165207Y0112485D01*
X0165261Y0112556D01*
X0165317Y0112623D01*
X0165377Y0112689D01*
X0165439Y0112751D01*
X0165505Y0112811D01*
X0165572Y0112867D01*
X0165643Y0112921D01*
X0165715Y0112971D01*
X0165790Y0113018D01*
X0165867Y0113062D01*
X0165946Y0113102D01*
X0166026Y0113139D01*
X0166108Y0113171D01*
X0166192Y0113201D01*
X0166276Y0113226D01*
X0166362Y0113248D01*
X0166448Y0113265D01*
X0166536Y0113279D01*
X0166624Y0113289D01*
X0166712Y0113295D01*
X0166800Y0113297D01*
X0166888Y0113295D01*
X0166976Y0113289D01*
X0167064Y0113279D01*
X0167152Y0113265D01*
X0167238Y0113248D01*
X0167324Y0113226D01*
X0167408Y0113201D01*
X0167492Y0113171D01*
X0167574Y0113139D01*
X0167654Y0113102D01*
X0167733Y0113062D01*
X0167810Y0113018D01*
X0167885Y0112971D01*
X0167957Y0112921D01*
X0168028Y0112867D01*
X0168095Y0112811D01*
X0168161Y0112751D01*
X0168223Y0112689D01*
X0168283Y0112623D01*
X0168339Y0112556D01*
X0168393Y0112485D01*
X0168443Y0112413D01*
X0168490Y0112338D01*
X0168534Y0112261D01*
X0168574Y0112182D01*
X0168611Y0112102D01*
X0168643Y0112020D01*
X0168673Y0111936D01*
X0168698Y0111852D01*
X0168720Y0111766D01*
X0168737Y0111680D01*
X0168751Y0111592D01*
X0168761Y0111504D01*
X0168767Y0111416D01*
X0168769Y0111328D01*
X0168767Y0111240D01*
X0168761Y0111152D01*
X0168751Y0111064D01*
X0168737Y0110976D01*
X0168720Y0110890D01*
X0168698Y0110804D01*
X0168673Y0110720D01*
X0168643Y0110636D01*
X0168611Y0110554D01*
X0168574Y0110474D01*
X0168534Y0110395D01*
X0168490Y0110318D01*
X0168443Y0110243D01*
X0168393Y0110171D01*
X0168339Y0110100D01*
X0168283Y0110033D01*
X0168223Y0109967D01*
X0168161Y0109905D01*
X0168095Y0109845D01*
X0168028Y0109789D01*
X0167957Y0109735D01*
X0167885Y0109685D01*
X0167810Y0109638D01*
X0167733Y0109594D01*
X0167654Y0109554D01*
X0167574Y0109517D01*
X0167492Y0109485D01*
X0167408Y0109455D01*
X0167324Y0109430D01*
X0167238Y0109408D01*
X0167152Y0109391D01*
X0167064Y0109377D01*
X0166976Y0109367D01*
X0166888Y0109361D01*
X0166800Y0109359D01*
X0166712Y0109361D01*
X0166624Y0109367D01*
X0166536Y0109377D01*
X0166448Y0109391D01*
X0166362Y0109408D01*
X0166276Y0109430D01*
X0166192Y0109455D01*
X0166108Y0109485D01*
X0166026Y0109517D01*
X0165946Y0109554D01*
X0165867Y0109594D01*
X0165790Y0109638D01*
X0165715Y0109685D01*
X0165643Y0109735D01*
X0165572Y0109789D01*
X0165505Y0109845D01*
X0165439Y0109905D01*
X0165377Y0109967D01*
X0165317Y0110033D01*
X0165261Y0110100D01*
X0165207Y0110171D01*
X0165157Y0110243D01*
X0165110Y0110318D01*
X0165066Y0110395D01*
X0165026Y0110474D01*
X0164989Y0110554D01*
X0164957Y0110636D01*
X0164927Y0110720D01*
X0164902Y0110804D01*
X0164880Y0110890D01*
X0164863Y0110976D01*
X0164849Y0111064D01*
X0164839Y0111152D01*
X0164833Y0111240D01*
X0164831Y0111328D01*
X0119899Y0115971D02*
X0119199Y0115271D01*
X0117797Y0115271D01*
X0117097Y0115971D01*
X0117097Y0119474D01*
X0115295Y0118073D02*
X0113894Y0119474D01*
X0113894Y0115271D01*
X0115295Y0115271D02*
X0112493Y0115271D01*
X0119899Y0115971D02*
X0119899Y0119474D01*
X0102548Y0108926D02*
X0102550Y0109014D01*
X0102556Y0109102D01*
X0102566Y0109190D01*
X0102580Y0109278D01*
X0102597Y0109364D01*
X0102619Y0109450D01*
X0102644Y0109534D01*
X0102674Y0109618D01*
X0102706Y0109700D01*
X0102743Y0109780D01*
X0102783Y0109859D01*
X0102827Y0109936D01*
X0102874Y0110011D01*
X0102924Y0110083D01*
X0102978Y0110154D01*
X0103034Y0110221D01*
X0103094Y0110287D01*
X0103156Y0110349D01*
X0103222Y0110409D01*
X0103289Y0110465D01*
X0103360Y0110519D01*
X0103432Y0110569D01*
X0103507Y0110616D01*
X0103584Y0110660D01*
X0103663Y0110700D01*
X0103743Y0110737D01*
X0103825Y0110769D01*
X0103909Y0110799D01*
X0103993Y0110824D01*
X0104079Y0110846D01*
X0104165Y0110863D01*
X0104253Y0110877D01*
X0104341Y0110887D01*
X0104429Y0110893D01*
X0104517Y0110895D01*
X0104605Y0110893D01*
X0104693Y0110887D01*
X0104781Y0110877D01*
X0104869Y0110863D01*
X0104955Y0110846D01*
X0105041Y0110824D01*
X0105125Y0110799D01*
X0105209Y0110769D01*
X0105291Y0110737D01*
X0105371Y0110700D01*
X0105450Y0110660D01*
X0105527Y0110616D01*
X0105602Y0110569D01*
X0105674Y0110519D01*
X0105745Y0110465D01*
X0105812Y0110409D01*
X0105878Y0110349D01*
X0105940Y0110287D01*
X0106000Y0110221D01*
X0106056Y0110154D01*
X0106110Y0110083D01*
X0106160Y0110011D01*
X0106207Y0109936D01*
X0106251Y0109859D01*
X0106291Y0109780D01*
X0106328Y0109700D01*
X0106360Y0109618D01*
X0106390Y0109534D01*
X0106415Y0109450D01*
X0106437Y0109364D01*
X0106454Y0109278D01*
X0106468Y0109190D01*
X0106478Y0109102D01*
X0106484Y0109014D01*
X0106486Y0108926D01*
X0106484Y0108838D01*
X0106478Y0108750D01*
X0106468Y0108662D01*
X0106454Y0108574D01*
X0106437Y0108488D01*
X0106415Y0108402D01*
X0106390Y0108318D01*
X0106360Y0108234D01*
X0106328Y0108152D01*
X0106291Y0108072D01*
X0106251Y0107993D01*
X0106207Y0107916D01*
X0106160Y0107841D01*
X0106110Y0107769D01*
X0106056Y0107698D01*
X0106000Y0107631D01*
X0105940Y0107565D01*
X0105878Y0107503D01*
X0105812Y0107443D01*
X0105745Y0107387D01*
X0105674Y0107333D01*
X0105602Y0107283D01*
X0105527Y0107236D01*
X0105450Y0107192D01*
X0105371Y0107152D01*
X0105291Y0107115D01*
X0105209Y0107083D01*
X0105125Y0107053D01*
X0105041Y0107028D01*
X0104955Y0107006D01*
X0104869Y0106989D01*
X0104781Y0106975D01*
X0104693Y0106965D01*
X0104605Y0106959D01*
X0104517Y0106957D01*
X0104429Y0106959D01*
X0104341Y0106965D01*
X0104253Y0106975D01*
X0104165Y0106989D01*
X0104079Y0107006D01*
X0103993Y0107028D01*
X0103909Y0107053D01*
X0103825Y0107083D01*
X0103743Y0107115D01*
X0103663Y0107152D01*
X0103584Y0107192D01*
X0103507Y0107236D01*
X0103432Y0107283D01*
X0103360Y0107333D01*
X0103289Y0107387D01*
X0103222Y0107443D01*
X0103156Y0107503D01*
X0103094Y0107565D01*
X0103034Y0107631D01*
X0102978Y0107698D01*
X0102924Y0107769D01*
X0102874Y0107841D01*
X0102827Y0107916D01*
X0102783Y0107993D01*
X0102743Y0108072D01*
X0102706Y0108152D01*
X0102674Y0108234D01*
X0102644Y0108318D01*
X0102619Y0108402D01*
X0102597Y0108488D01*
X0102580Y0108574D01*
X0102566Y0108662D01*
X0102556Y0108750D01*
X0102550Y0108838D01*
X0102548Y0108926D01*
X0112662Y0095439D02*
X0114063Y0095439D01*
X0114764Y0094738D01*
X0116565Y0094738D02*
X0116565Y0093337D01*
X0117266Y0092637D01*
X0119368Y0092637D01*
X0117967Y0092637D02*
X0116565Y0091235D01*
X0114764Y0091235D02*
X0111961Y0094038D01*
X0111961Y0094738D01*
X0112662Y0095439D01*
X0116565Y0094738D02*
X0117266Y0095439D01*
X0119368Y0095439D01*
X0119368Y0091235D01*
X0114764Y0091235D02*
X0111961Y0091235D01*
X0112365Y0080675D02*
X0110263Y0080675D01*
X0109562Y0079975D01*
X0109562Y0078573D01*
X0110263Y0077873D01*
X0112365Y0077873D01*
X0112365Y0076472D02*
X0112365Y0080675D01*
X0110963Y0077873D02*
X0109562Y0076472D01*
X0107761Y0076472D02*
X0104958Y0076472D01*
X0106359Y0076472D02*
X0106359Y0080675D01*
X0107761Y0079274D01*
D12*
X0144877Y0223601D02*
X0142093Y0226385D01*
X0137108Y0226193D02*
X0134324Y0228977D01*
M02*
