%
M48
M72
T01C0.02283
T02C0.02362
T03C0.03937
T04C0.04291
T05C0.06614
T06C0.07402
T07C0.08189
T08C0.09843
T09C0.11024
T10C0.12795
%
T01
X150304Y156879
X189674Y156879
X194950Y121328
X155580Y121328
T02
X52981Y226209
X60855Y209477
X73650Y192745
X71682Y179950
X87430Y178965
X83493Y164202
X76603Y159280
X73650Y142548
X68729Y131721
X60855Y110068
X76603Y100225
X85461Y110068
X91367Y95304
X110068Y114005
X121879Y108099
X119910Y125816
X111052Y133690
X101859Y141564
X96859Y144517
X121879Y145501
X121879Y153375
X128434Y138611
X161249Y127784
X170107Y125816
X165186Y140580
X185855Y117942
X159280Y96288
X147469Y102194
X51997Y143532
X53965Y180934
X79556Y220304
X101209Y199635
X102194Y189792
X111052Y183887
X114005Y195698
X116465Y203572
X129753Y195698
X144517Y197666
X154359Y187824
X159280Y182902
X165186Y186839
X159280Y176997
X175028Y176997
X180934Y176997
X178965Y203572
X186328Y207509
X186328Y215009
X165186Y204556
X157312Y230146
X248847Y211446
X121879Y168139
T03
X123217Y247115
X133060Y247115
X142902Y247115
X186328Y247115
X196170Y247115
X206013Y247115
X311682Y247391
X321524Y247391
X331367Y247391
X392509Y247391
X382666Y247391
X372824Y247391
X268257Y247391
X258414Y247391
X248572Y247391
T04
X40855Y262115
X40855Y282115
X71170Y286446
X91170Y286446
X91170Y256485
X81170Y256485
X71170Y256485
T05
X37587Y195501
X61209Y195501
X61249Y122666
X37627Y122666
T06
X211249Y24753
X223060Y43060
X211249Y61367
X211249Y74753
X223060Y93060
X211249Y111367
X211249Y134320
X223060Y152627
X211249Y170934
X211249Y184320
X223060Y202627
X211249Y220934
T07
X51170Y65580
X51170Y26564
X81170Y26564
X121170Y26564
T08
X173926Y276643
X155304Y276643
X110816Y276643
X218414Y276643
X236170Y276918
X280658Y276918
X299280Y276918
X343769Y276918
X360422Y276918
X404910Y276918
T09
X39202Y242942
X173060Y27391
X227194Y295894
X352194Y295894
T10
X101170Y45265
M30
